/* XPM */
static char *_1d6179acd914155e35411b5e0800668jqhKP3GBOShe4z75[] = {
/* columns rows colors chars-per-pixel */
"32 32 131 2 ",
"   c #816037",
".  c #8F6433",
"X  c #84633C",
"o  c #88643D",
"O  c #8B693D",
"+  c #996B36",
"@  c #946B3C",
"#  c #9B6E3B",
"$  c #9E703A",
"%  c #A1723C",
"&  c #8E6E42",
"*  c #936E42",
"=  c #947146",
"-  c #9D7242",
";  c #97764B",
":  c #9B7649",
">  c #9C794D",
",  c #A17744",
"<  c #A37944",
"1  c #AA7E46",
"2  c #A37C4C",
"3  c #A97E4C",
"4  c #A7814E",
"5  c #AC824C",
"6  c #B1854D",
"7  c #BC8C4F",
"8  c #A68051",
"9  c #AC8353",
"0  c #AE8956",
"q  c #B08653",
"w  c #B48C55",
"e  c #BB8E54",
"r  c #B58E5B",
"t  c #BA8E5A",
"y  c #BD9257",
"u  c #BC935C",
"i  c #BC9461",
"p  c #BF9D6D",
"a  c #C18F4E",
"s  c #C49454",
"d  c #C2965B",
"f  c #C99758",
"g  c #C5995D",
"h  c #CB9C5B",
"j  c #D19E5B",
"k  c #D2A15E",
"l  c #C19660",
"z  c #C59C63",
"x  c #C99E63",
"c  c #C49D6A",
"v  c #CCA165",
"b  c #C6A06C",
"n  c #CDA46B",
"m  c #CDA86F",
"M  c #D4A464",
"N  c #D8A765",
"B  c #D2A669",
"V  c #D5AA6D",
"C  c #DAAC6C",
"Z  c #DCB16D",
"A  c #C5A374",
"S  c #CBA571",
"D  c #CDA975",
"F  c #CDAB79",
"G  c #D5AC73",
"H  c #DBAE72",
"J  c #D5AE79",
"K  c #DCB374",
"L  c #DCB57B",
"P  c #DEB97E",
"I  c #E0AF6B",
"U  c #E3B36E",
"Y  c #E3B573",
"T  c #E8B774",
"R  c #E5B974",
"E  c #E9BB75",
"W  c #E1B67A",
"Q  c #E4BC7C",
"!  c #E9BE7D",
"~  c #E7C17E",
"^  c #EDC17B",
"/  c #DCB680",
"(  c #DFBA82",
")  c #E4BE82",
"_  c #E5C285",
"`  c #EBC484",
"'  c #E4C48B",
"]  c #EAC68A",
"[  c #E7C98F",
"{  c #ECCA8C",
"}  c #F1C781",
"|  c #F3C987",
" . c #F2CD8C",
".. c #EFD08D",
"X. c #F2D18E",
"o. c #E7CA91",
"O. c #EBCC91",
"+. c #EBCE93",
"@. c #EFCC90",
"#. c #EECE91",
"$. c #ECCE93",
"%. c #EBCE9A",
"&. c #F1CF93",
"*. c #EED194",
"=. c #EDD097",
"-. c #EED299",
";. c #F2D090",
":. c #F2D395",
">. c #F4D294",
",. c #F3D597",
"<. c #F7DA97",
"1. c #F1D398",
"2. c #F0D498",
"3. c #F3D69B",
"4. c #F7D498",
"5. c #F1D59D",
"6. c #F1D69D",
"7. c #F5D89D",
"8. c #F5D89F",
"9. c #F6DC9E",
"0. c #F8D99B",
"q. c #F9DD9C",
"w. c #F8DD9D",
"e. c #FADC9C",
"r. c #F1D8A1",
"t. c #F6DCA0",
"y. c #F9DEA1",
"u. c #F5DEA9",
"i. c #FBE0A2",
"p. c #FAE1A5",
"a. c #FBE1A7",
/* pixels */
"r c G G n n n G J n b G S S J F D c G D z z G G J J S n p A b A ",
"{ 8.8.2.) ( #.,.,.( P #.=.+.=.1.p.2.9.8.P ' r.2.%.5.8.4.5.u.2.5.",
"9 u 5 4 > * 3 < < o < , , < 5 w t n l i X t u u u u t 2 w u t 9 ",
"B ` ^ }  .| | | ` C ! K L L K Y Y Y R Y C ! E Q ! Q ! ` ` ` ! ) ",
"d H C B C C v h d q v n v n B Q W W H C z W W H H Y Y Y K G G x ",
"; ; > = = : &   o X & @ O * = 2 : u 9 9 0 r 2 2 : < 2 3 8 : > : ",
" .) { 4.;.{ ` ` ^ ` Q ) _ _ ] ] { #.{ { { ) Y |  . .] #.&.X. . .",
"H H G V n z n V K V H V H K K K G n V G x t G G B V H G g n K K ",
"i.p.p.p.p.,.2.9.2.,.#.#.i.y.p.p.y. .q.q.0.] q.q.q.q.i.q.>.0.p.i.",
"j j h h h g s s a 7 s f s f h g v h h h h 7 j k M k f h 7 e h h ",
"Y U Y Y U C C V V B V x z x v t C U U Y C H C V C C g Y Y M R R ",
"E T R Y Y E Y Y Y R C C Y Y R N E E E R E R Y Y Y U M E R N E E ",
"j h f s s h s a 7 7 s f h h g d k f s e s s h j h N g h f s j h ",
"8.0.8.1.{ 0.4.4.,.;.;.] #.:.:.#.:. . .{ { >.,.4.,.:.:.:.` :.q.q.",
"E U E U k U U E I C N C Z Y H C E } ^ N I ^ ^ ^ ^ ! E T M V E E ",
"t u u u l q w w w w u w u t r u r 9 9 w 9 2 0 r r w t u 9 u l u ",
"y.t.y.9.0.{ ,.=.8.8.t.2.4.y.0.2.:.0.q.q.4.4.p.i.p.9.t.2.] =.p.y.",
";.=.=.{ { Q ] =.=.=.+.#.=.2.,.=.{ #.2.2.#.{ 8.2.8.2.0.,._ ) =.:.",
"] ] +.[ ' ( _ [ ' [ _ +.' [ +.[ [ +.=.=._ ' +.+.{ { _ ) L [ +.{ ",
"v n x x g d g v x g v x x v x l u z v v d g z z x x x g u v v v ",
"' ( / ) ' ' ( P ( ( P L L L L L G n G L L P K P ( P P L L ' ' _ ",
"_ ) W _ ) W L K L K L L Q _ ] { ) _  .#.{ { ` { ] ] ] ) Q ) ) ) ",
"g g w u y y f y y y u 6 w 5 5 @ 5 + + # $ $ % 1 6 5 - w u f f g ",
") { :.X.;.X.X.X. ...{ 1.] ' ;.Q :.0.:.:.<.q.8.:.,.;.W :.8.;.&.;.",
"Z C R K K Z M n V B n n V G K B H ` ` ~ Q ! Q Q ~ ~ V L Q _ Q Q ",
"u w d y u t w 9 0 r u u u r u w w h s e f g h v x x t d g v x w ",
"=.#.2.:.2.2.=.+.P ,.+.[ =.-.-.-.' { ' K ;.=.=.=.=.-.=.-.-.+.+.L ",
"=.L +.[ { ' [ [ b ' ' { +.[ o.+.P 2.2.G 2.=.=.=.=.=.=.=.+.+.( ( ",
"u # e e w 6 e e . t w w w r u 5 : x n , x g d t t e w t w w 3 9 ",
"n G K G K L P ) n H K H C K L ) K c m i n V V G K K Q Q Q ) ) G ",
"_ ] :.,.2.=.+.{ K ] { #.=.:.2.2.#.Q q._ 4.q.8.8.8.8.8.9.9.8.8.&.",
"w t g x h g y v w e d d g z v l u u B z g v B M B B g z x z d w "
};
