/* XPM */
static char *b08b7c0c0b234a9696310875f22726fcIxXnGlqban1X4ZOr[] = {
/* columns rows colors chars-per-pixel */
"64 64 182 2 ",
"   c None",
".  c #0D1516",
"X  c #0E1819",
"o  c #0B1617",
"O  c #141C1B",
"+  c #1C1C1E",
"@  c #060D0C",
"#  c #241D1F",
"$  c #1A201E",
"%  c #26221E",
"&  c #1E1E21",
"*  c #2D1E21",
"=  c #311E20",
"-  c #1B2528",
";  c #1E2D30",
":  c #2B2126",
">  c #232529",
",  c #2D2328",
"<  c #262927",
"1  c #3F2125",
"2  c #34242B",
"3  c #382226",
"4  c #383528",
"5  c #292F30",
"6  c #362830",
"7  c #2D3132",
"8  c #2B3136",
"9  c #32333A",
"0  c #452425",
"q  c #4E2429",
"w  c #4C2327",
"e  c #443829",
"r  c #563F2B",
"t  c #4C2B36",
"y  c #472C37",
"u  c #522D39",
"i  c #592D38",
"p  c #43303B",
"a  c #5C303E",
"s  c #5A242A",
"d  c #63262E",
"f  c #602F3C",
"g  c #7E3829",
"h  c #584B37",
"j  c #5B5338",
"k  c #604830",
"l  c #7E5434",
"z  c #695B39",
"x  c #373642",
"c  c #3A3643",
"v  c #3C3844",
"b  c #433644",
"n  c #4D3745",
"m  c #4D3847",
"M  c #4E3848",
"N  c #5B3544",
"B  c #553849",
"V  c #5C394B",
"C  c #533746",
"Z  c #6C3445",
"A  c #643A4C",
"S  c #6C3B4E",
"D  c #673242",
"F  c #763646",
"G  c #733A4D",
"H  c #7E394E",
"J  c #773748",
"K  c #7D3D52",
"L  c #733B50",
"P  c #314E56",
"I  c #36545E",
"U  c #55585A",
"Y  c #6B6D6E",
"T  c #882D39",
"R  c #952E3A",
"E  c #95303E",
"W  c #A92F3D",
"Q  c #A9323E",
"!  c #895A37",
"~  c #8D5F3A",
"^  c #B85836",
"/  c #8D603A",
"(  c #DC633E",
")  c #DD6A39",
"_  c #DE733E",
"`  c #E3643D",
"'  c #E3683C",
"]  c #E77039",
"[  c #863646",
"{  c #923A47",
"}  c #833D53",
"|  c #8D3E56",
" . c #923E56",
".. c #9A3E55",
"X. c #923F58",
"o. c #A63443",
"O. c #BB3B4E",
"+. c #B93649",
"@. c #A53B53",
"#. c #AA3C53",
"$. c #B23C52",
"%. c #BC3B51",
"&. c #C53B4E",
"*. c #CB394D",
"=. c #C93748",
"-. c #D33A4E",
";. c #DD394D",
":. c #D23749",
">. c #C33B51",
",. c #C93B50",
"<. c #D63B50",
"1. c #E2364B",
"2. c #E2394C",
"3. c #EB3A4E",
"4. c #9F404D",
"5. c #954059",
"6. c #A3424B",
"7. c #B85449",
"8. c #886C48",
"9. c #877346",
"0. c #B76753",
"q. c #984C63",
"w. c #A25C72",
"e. c #B67862",
"r. c #D4485B",
"t. c #E34649",
"y. c #E35549",
"u. c #D37A5F",
"i. c #E9795D",
"p. c #E66951",
"a. c #C05F74",
"s. c #E04F61",
"d. c #E15365",
"f. c #C67961",
"g. c #9A824F",
"h. c #9D8451",
"j. c #A48953",
"k. c #B8995B",
"l. c #B28D57",
"z. c #D7864D",
"x. c #D59B56",
"c. c #E78D4D",
"v. c #F1914E",
"b. c #F59953",
"n. c #EF904E",
"m. c #F1A55C",
"M. c #EC9E67",
"N. c #DEB367",
"B. c #C8A561",
"V. c #ECAA6A",
"C. c #F8AE61",
"Z. c #E9BE6E",
"A. c #F1BC6D",
"S. c #F8B868",
"D. c #F0BF70",
"F. c #F0C16F",
"G. c #EDC270",
"H. c #F2C471",
"J. c #F7CA73",
"K. c #4E7988",
"L. c #587D89",
"P. c #797F82",
"I. c #70AABE",
"U. c #838E95",
"Y. c #979896",
"T. c #A3889E",
"R. c #8098A3",
"E. c #9497AC",
"W. c #ACA9AE",
"Q. c #BBB6BB",
"!. c #C797A6",
"~. c #98B8C6",
"^. c #A2AEC1",
"/. c #D6B9C5",
"(. c #B9D9E9",
"). c #DBC3CD",
"_. c #E2D4DB",
"`. c #C2D8E6",
"'. c #E3DEE7",
"]. c #ECE4EB",
"[. c #F4EDF4",
"{. c #F8EDF4",
/* pixels */
"                                                                                                                                ",
"                                                                                                                                ",
"                                                                                                                                ",
"                                                                                                                                ",
"                                                                                                                                ",
"                                                                                                                                ",
"                                                                                                                                ",
"                                                                                                                                ",
"                                                                                                                                ",
"                                                                                                                                ",
"                                                                                                                                ",
"                                                          X X X X X                                                             ",
"                                                        O j.k.k.k.j.O O                                                         ",
"                                                      O h.Z.H.H.J.G.B.j.O                                                       ",
"                                                    o g.j 4 4 e N.H.J.G.h.o                                                     ",
"                                                      <         4 Z.H.J.l.$                                                     ",
"                                                        % % % % 4 Z.H.H.H.g.o                                                   ",
"                                                    * * ^ ) ) ) _ F.H.H.J.j.o                                                   ",
"                                                > : Q 1.y.` ` ` p.F.H.H.J.l.* >                                                 ",
"                                              = D >.2.y.2.2.2.2.t.D.H.H.A.i.>.D =                                               ",
"                                            3 R %.%.1.V.i.2.1.2.p.C.A.H.M.1.%.%.R 3                                             ",
"                                            d 3.$.%.1.u.G.i.p.i.A.n.b.A.i.1.%.$.3.d                                             ",
"                                          1 T -.&.$.-.@.e.H.J.J.J.C.V.f.*.-.$.&.-.T 1                                           ",
"                                          s >.$.3.&.$...| 8.9.9.9.9.8.| ..$.&.2.$.>.s                                           ",
"                                        , [ -.$.*.2.&...a + P.- - P.+ a ..&.2.*.$.-.[ ,                                         ",
"                                    o X 2 $.2.-.$.*.2.#.: O Y - - Y O : #.3.*.$.-.2.$.2 X o                                     ",
"                                  * T t 2 ..>.2.-.$.-.@.Z & . T T . & Z ..#.$.-.2.>...2 t T *                                   ",
"                                # Q <.F 2 X. .&.,.G [ !.w.o.W 2.;.W o.w.!.G G ,.&. .X.2 F <.Q #                                 ",
"                              + F ;.;.O.a u X...G A } /._.d.T.r.r.T.d._./.} A G ..X.u a O.;.;.F +                               ",
"                              # &.#.;.2.O.a u X.V S  ./.[.^.a.E.E.a.^.[./. .S V X.u a O.2.;.#.&.#                               ",
"                            + # :.*.#.;.2.O.A b b S  .q.).'.s.r.r.s.'.).q. .S b b A O.2.;.#.*.:.# +                             ",
"                          % Q 1 =.2.*.#.;.o.c x { [ G | q.r.;.2.2.;.r.q.| G [ { x c o.;.#.*.2.=.1 o.#                           ",
"                        O ^ ' =.q =.*.O.G b c A %.2.J L }  ...-.-... .} L J 2.%.A c b G O.*.=.q =.2.o.O                         ",
"                        O ^ ` 2.*.C n b v x V | O.t.;.J n K } } } } K n J ;.2.%.| V x v b n C *.2.2.+.O                         ",
"                        O +.2.2.*. .} b x x V X.7.] t.@.*.F N N N N F *.@.2.2.%. .V x x b }  .*.2.2.+.O                         ",
"                        O R *.,. .|  .K x x B } 7.( t.@.*.2.2.2.2.2.2.*.@.2.-.$.} B x x K  . . .,.*.R O                         ",
"                          0 { 6.4.| | N 9 x x A  .$.;.%.%.;.2.2.2.2.;.%.%.;.$. .A x x 9 N | | 4.6.{ 0                           ",
"                    h k % ^ ` ( ( 6.u + y M x B }  .$.;.%.%.;.2.2.;.%.%.;.$. .} B x M y + u 6.( ( ` ^ % k h                     ",
"                  o j.S./ ! c.b.c.g O 2 5.} m x B S } $.>. .%.O.O.%. .>.$.} S B x m } 5.2 O g c.b.c.! / S.j.o                   ",
"                    z x.C.~ l ! l     3 #.| } m x x B A }  .| e.e.|  .} A B x x m } | #.3     l ! l ~ C.x.z                     ",
"                    I Y.V.C.~ O       0 -.#.| K p 9 c x B A 0.H.H.0.A B x c 9 p K | #.-.0       O ~ C.V.Y.I                     ",
"                  I I.K.h N.S.<       0 3.-.%.$.t O 9 v c v z.m.m.z.v c v 9 O t $.%.-.3.0       < S.N.h K.I.I                   ",
"              @ Y ~.K.5   j j           T 3.3.E t D 6 - > > z.v.v.z.> > - 6 D t E 3.3.T           j j   5 K.~.Y @               ",
". . . . . . P R._.U.;                 , f q w i H 5.H :     r c.c.r     : H 5.H i w q f ,                 ; U._.R.P . . . . . . ",
"Q.Q.Q.Q.Q.Q.~.(.Y.7                   2 | Z Z H  . .u         e e         u  . .H Z Z | 2                   7 Y.(.~.Q.Q.Q.Q.Q.Q.",
"U ].[.[.[.{.`.L.7                     O t X. . .X.u                         u X. . .X.t O                     7 L.`.{.[.[.[.].U ",
"  9 U ].].W.5 ;                                                                                                 ; 5 W.].].U 9   ",
"      7 7 5                                                                                                         5 7 7       ",
"                                                                                                                                ",
"                                                                                                                                ",
"                                                                                                                                ",
"                                                                                                                                ",
"                                                                                                                                ",
"                                                                                                                                ",
"                                                                                                                                ",
"                                                                                                                                ",
"                                                                                                                                ",
"                                                                                                                                ",
"                                                                                                                                ",
"                                                                                                                                ",
"                                                                                                                                ",
"                                                                                                                                ",
"                                                                                                                                ",
"                                                                                                                                "
};
