/* XPM */
static char *_70a725cf09e478697327b5f55940b1cqSfKZweXY6P2oZAd[] = {
/* columns rows colors chars-per-pixel */
"32 32 5 1 ",
"  c #372C29",
". c #423A36",
"X c #504C47",
"o c #625C56",
"O c white",
/* pixels */
"  .Xooo...ooooXXX...XX.oooX.....",
"  .XooX...oooooooo.....ooooooX..",
"   XXX ...ooooooooX.   ooooooo..",
"   XX  ..XooooooooX.   Xoooooo..",
"   ..   .XXoooooooX    Xoooooo. ",
"  ...    XXoooooooo    .ooXooX  ",
"  ..  X. XXoooooooo     XXXXXX  ",
"  .  .XX .Xoooooooo     XXXXXX  ",
" ..  ..  .Xoooooooo.    XXX.... ",
" ...     ...oooooooX     ...XXX ",
" ..XXX   .. oooooooo    XXoooXX ",
"..XXoooX    oooooooo   .Xooooo  ",
"..XXoooooX..oooooooo....oooooo  ",
".XXXoooooXX.Xooooooo....oooooX  ",
".ooXooooo...Xooooooo...Xooooo. .",
"XooXooooX.. XooooXXX...oooooX  .",
"oooXoooo...   XXXoooo..ooooo. ..",
"oooXXoo...   .Xoooooo..ooooX. ..",
"..XXXXX..   .. ooooooXXoooo. ...",
"ooo....    ..  ooooooXXXXoo. ...",
"ooooo.     .. .oooooXoooXXX.....",
"Xoooo.... .. ..XooooXooooX......",
"XoooX....XX......XXXXoooo......X",
"ooXX. ..XXX....XooooXooooXX ...o",
"ooo.  .XXX..XXXoooooXoooXXX   .X",
"XXX  .XXXX .XXXoooooooooXXX   XX",
"XX. .XXXXX .XXXooooXoooXXX.  .XX",
"XX...XooX  XXXoooooXoooXXX   ...",
".......XX .XXooooooXXXX.XX  .XX.",
"XX..ooX.. .XXoooooXX.XX.    .XXX",
"XX Xoooo  XXXoooooXX  ..    ..XX",
".  XXooo. XXXXXXX.XX    ..  ..XX"
};
