/* XPM */
static char *result[] = {
/* columns rows colors chars-per-pixel */
"32 32 8 1 ",
"  c black",
". c #A22633",
"X c #F77622",
"o c #4AC035",
"O c #79C839",
"+ c #FEAE34",
"@ c #FEE761",
"# c white",
/* pixels */
"oooooooOOOooOOOOooOOOOoooooooOoo",
"ooooooooOOOOOOOOOOOOOooooooooooo",
"oOOOooooOOOOOOOOOooooooooooooooo",
"ooOOOooooOOOoooOOOoooooOoooooooo",
"oooOOOooooOoooOOOOOoooOOoooOOOoo",
"oooOOOOooooooOOOOOOoOoOOOoOOOooo",
"oOOOOoooooOoOOOOOOOOOOOOOOOOoooo",
"oooOOOoooOOO         ooOOOOooooo",
"ooOOOOOooOO XXXX@@@#@ OOOOOooooo",
"oOOOOOOOoOO XXX@XXXXX OOOOOOooOO",
"OOOOOOOOOOO XXX@++++X ooOOOOOoOO",
"OOOOOOOOOOO +++@+X#+X oOOOOOOOOO",
"OOOOOOOOOOO ...@X@#+X OOOOOOOOOO",
"OOOOOoooOOO XXX@@@@#X OOOOOOOOOO",
"ooOOoooOOOO XXX@@+X#X OOOOOooOOo",
"OooOooOOOOO +++@@+++X OOOOOOooOo",
"OooOoOOOOOO +++@X@@#X ooooOOoooo",
"OOoOOOOOOOO ...@+X@#X OooooooooO",
"OOOOOOOOOOO XXX@+X@#X OOooooooOO",
"OOOOOOOOOOO ...@@@@#X OOOooooOOO",
"OOOOOOOOOOO ...@X@#+X OOOooooooO",
"OOOOOOOOOOO XXX@+X#+X OOooooooOO",
"OOOOOOOOOOO XXX@++++X oooooooOOO",
"OOOOOOOOOOO XXXX@@@#@ ooooooOOOO",
"OooooOOOOOOO         OOOoooooooO",
"OOooooOOOOOOOOoOOOooOOOooOooooOO",
"OOOooooOoooOOOOOOOOoOOooOOoooOOO",
"OOOoooooooOOooOOOOOOOOOOOOooOOOO",
"OooooOoooOOooOOOOOOOoooOOoooOOOO",
"oooooOOoOOOoOOOOOOOOOooooooooooo",
"ooOOOOOOOOOOOOOOOOOoOOoooooooooo",
"oooOOOooooOOOOOOOOOooOoooooooooo"
};
