/* XPM */
static char *result[] = {
/* columns rows colors chars-per-pixel */
"32 32 8 1 ",
"  c black",
". c #A22633",
"X c #F77622",
"o c #4AC035",
"O c #79C839",
"+ c #FEAE34",
"@ c #FEE761",
"# c white",
/* pixels */
"oooooooOOOooOOOOooOOOOoooooooOoo",
"ooooooooOOOOOOOOOOOOOooooooooooo",
"oOOOooooOOOOOOOOOooooooooooooooo",
"ooOOOooooOOOoooOOOoooooOoooooooo",
"oooOOOooooOoooOOOOOoooOOoooOOOoo",
"oooOOOOooooooOOOOOOoOoOOOoOOOooo",
"oOOOOoooooOoOOOOOOOOOOOOOOOOoooo",
"oooOOOoooO             OOOOooooo",
"ooOOOOOoo XX@@@@@@###@@ OOOooooo",
"oOOOOOOO XX@XXXXXXXXXXX@ OOOooOO",
"OOOOOOOO XX@++++++++++X@ OOOOoOO",
"OOOOOOOO ++@+++X@+X#++X@ OOOOOOO",
"OOOOOOOO ..@+++X@@@#++X@ OOOOOOO",
"OOOOOooo XX@++X@@@@@#+X@ OOOOOOO",
"ooOOoooO XX@++X@@+X@#+X@ OOooOOo",
"OooOooOO ++@++X@@+++++X@ OOOooOo",
"OooOoOOO ++@++X@@@@@#+X@ oOOoooo",
"OOoOOOOO ..@++++++X@#+X@ ooooooO",
"OOOOOOOO XX@++X@@+X@#+X@ oooooOO",
"OOOOOOOO ..@++X@@@@@#+X@ ooooOOO",
"OOOOOOOO ..@+++X@@@#++X@ ooooooO",
"OOOOOOOO XX@+++X@+X#++X@ oooooOO",
"OOOOOOOO XX@++++++++++X@ ooooOOO",
"OOOOOOOOO XX@@@@@@###@@ ooooOOOO",
"OooooOOOOO             OoooooooO",
"OOooooOOOOOOOOoOOOooOOOooOooooOO",
"OOOooooOoooOOOOOOOOoOOooOOoooOOO",
"OOOoooooooOOooOOOOOOOOOOOOooOOOO",
"OooooOoooOOooOOOOOOOoooOOoooOOOO",
"oooooOOoOOOoOOOOOOOOOooooooooooo",
"ooOOOOOOOOOOOOOOOOOoOOoooooooooo",
"oooOOOooooOOOOOOOOOooOoooooooooo"
};
