/* XPM */
static char *result[] = {
/* columns rows colors chars-per-pixel */
"32 32 7 1 ",
"  c black",
". c #F77622",
"X c #4AC035",
"o c #79C839",
"O c #FEAE34",
"+ c #FEE761",
"@ c white",
/* pixels */
"XXXXXXXoooXXooooXXooooXXXXXXXoXX",
"XXXXXXXXoooooooooooooXXXXXXXXXXX",
"XoooXXXXoooooooooXXXXXXXXXXXXXXX",
"XXoooXXXXoooXXXoooXXXXXoXXXXXXXX",
"XXXoooXXXXoXXXoooooXXXooXXXoooXX",
"XXXooooXXXXXXooooooXoXoooXoooXXX",
"XooooXXXXXoXooooooooooooooooXXXX",
"XXXoooXXX              ooooXXXXX",
"XXoooooX ++++++++@@@+++ oooXXXXX",
"Xoooooo +..............+ oooXXoo",
"ooooooo +OOOOOOOOOOOOO.+ ooooXoo",
"ooooooo +OOOO.+OO.@OOO.+ ooooooo",
"ooooooo +OOOO.++++@OOO.+ ooooooo",
"oooooXX +OOO.++++++@OO.+ ooooooo",
"XXooXXX +OOO.++O.++@OO.+ ooXXooX",
"oXXoXXo +OOO.++OOOOOOO.+ oooXXoX",
"oXXoXoo +OOO.++++++@OO.+ XooXXXX",
"ooXoooo +OOOOOOO.++@OO.+ XXXXXXo",
"ooooooo +OOO.++O.++@OO.+ XXXXXoo",
"ooooooo +OOO.++++++@OO.+ XXXXooo",
"ooooooo +OOOO.++++@OOO.+ XXXXXXo",
"ooooooo +OOOO.+OO.@OOO.+ XXXXXoo",
"ooooooo +OOOOOOOOOOOOO.+ XXXXooo",
"oooooooo ++++++++@@@+++ XXXXoooo",
"oXXXXoooo              oXXXXXXXo",
"ooXXXXooooooooXoooXXoooXXoXXXXoo",
"oooXXXXoXXXooooooooXooXXooXXXooo",
"oooXXXXXXXooXXooooooooooooXXoooo",
"oXXXXoXXXooXXoooooooXXXooXXXoooo",
"XXXXXooXoooXoooooooooXXXXXXXXXXX",
"XXoooooooooooooooooXooXXXXXXXXXX",
"XXXoooXXXXoooooooooXXoXXXXXXXXXX"
};
