/* XPM */
static char *result[] = {
/* columns rows colors chars-per-pixel */
"32 32 8 1 ",
"  c black",
". c #A22633",
"X c #F77622",
"o c #4AC035",
"O c #79C839",
"+ c #FEAE34",
"@ c #FEE761",
"# c white",
/* pixels */
"oooooooOOOooOOOOooOOOOoooooooOoo",
"ooooooooOOOOOOOOOOOOOooooooooooo",
"oOOOooooOOOOOOOOOooooooooooooooo",
"ooOOOooooOOOoooOOOoooooOoooooooo",
"oooOOOooooOoooOOOOOoooOOoooOOOoo",
"oooOOOOooooooOOOOOOoOoOOOoOOOooo",
"oOOOOoooooOoOOOOOOOOOOOOOOOOoooo",
"oooOOOoooO            oOOOOooooo",
"ooOOOOOoo @@@@@@##@XXX OOOOooooo",
"oOOOOOOO XXXXXXXXXX@XXX OOOOooOO",
"OOOOOOOO +++++++++X@XXX OOOOOoOO",
"OOOOOOOO ++X@+X#++X@+++ OOOOOOOO",
"OOOOOOOO ++X@@@#++X@... OOOOOOOO",
"OOOOOooo +X@@@@@#+X@XXX OOOOOOOO",
"ooOOoooO +X@@+X@#+X@XXX OOOooOOo",
"OooOooOO +X@@+++++X@+++ OOOOooOo",
"OooOoOOO +X@@@@@#+X@+++ ooOOoooo",
"OOoOOOOO +++++X@#+X@... oooooooO",
"OOOOOOOO +X@@+X@#+X@XXX ooooooOO",
"OOOOOOOO +X@@@@@#+X@... OooooOOO",
"OOOOOOOO ++X@@@#++X@... OooooooO",
"OOOOOOOO ++X@+X#++X@XXX ooooooOO",
"OOOOOOOO +++++++++X@XXX oooooOOO",
"OOOOOOOOO @@@@@@##@XXX oooooOOOO",
"OooooOOOOO            OOoooooooO",
"OOooooOOOOOOOOoOOOooOOOooOooooOO",
"OOOooooOoooOOOOOOOOoOOooOOoooOOO",
"OOOoooooooOOooOOOOOOOOOOOOooOOOO",
"OooooOoooOOooOOOOOOOoooOOoooOOOO",
"oooooOOoOOOoOOOOOOOOOooooooooooo",
"ooOOOOOOOOOOOOOOOOOoOOoooooooooo",
"oooOOOooooOOOOOOOOOooOoooooooooo"
};
