/* XPM */
static char *result[] = {
/* columns rows colors chars-per-pixel */
"32 32 7 1 ",
"  c black",
". c #A22633",
"X c #F77622",
"o c #4AC035",
"O c #79C839",
"+ c #FEAE34",
"@ c white",
/* pixels */
"oooooooOOOooOOOOooOOOOoooooooOoo",
"ooooooooOOOOOOOOOOOOOooooooooooo",
"oOOOooooOOOOOOOOOooooooooooooooo",
"ooOOOooooOOOoooOOOoooooOoooooooo",
"oooOOOooooOoooOOOOOoooOOoooOOOoo",
"oooOOOOooooooOOOOOOoOoOOOoOOOooo",
"oOOOOoooooOoOOOOOOOOOOOOOOOOoooo",
"oooOOOoooOOOO      OoooOOOOooooo",
"ooOOOOOooOOO XXXXX@ ooOOOOOooooo",
"oOOOOOOOoOOO XXXXXX ooOOOOOOooOO",
"OOOOOOOOOOOO XXXXX@ ooooOOOOOoOO",
"OOOOOOOOOOOO ++++++ oooOOOOOOOOO",
"OOOOOOOOOOOo ...... ooOOOOOOOOOO",
"OOOOOoooOOOO XXXXX@ oOOOOOOOOOOO",
"ooOOoooOOOOO XXXXX@ OOOOOOOooOOo",
"OooOooOOOOOO +++++@ OOOOOOOOooOo",
"OooOoOOOOOOO +++++@ OOooooOOoooo",
"OOoOOOOOOOOO .....@ OOOooooooooO",
"OOOOOOOOOOOO XXXXX@ OOOOooooooOO",
"OOOOOOOOOOOO .....@ oOOOOooooOOO",
"OOOOOOOOOOOO ...... OOOOOooooooO",
"OOOOOOOOOOOO XXXXX@ OOOOooooooOO",
"OOOOOOOOOOOO XXXXX@ oooooooooOOO",
"OOOOOOOOOOOO XXXXXX ooooooooOOOO",
"OooooOOOOOOOO      ooOOOoooooooO",
"OOooooOOOOOOOOoOOOooOOOooOooooOO",
"OOOooooOoooOOOOOOOOoOOooOOoooOOO",
"OOOoooooooOOooOOOOOOOOOOOOooOOOO",
"OooooOoooOOooOOOOOOOoooOOoooOOOO",
"oooooOOoOOOoOOOOOOOOOooooooooooo",
"ooOOOOOOOOOOOOOOOOOoOOoooooooooo",
"oooOOOooooOOOOOOOOOooOoooooooooo"
};
