/* XPM */
static char *result[] = {
/* columns rows colors chars-per-pixel */
"64 64 161 2 ",
"   c #4E5217",
".  c #595E1A",
"X  c #646A1D",
"o  c #6F7620",
"O  c #7A8223",
"+  c #4AC035",
"@  c #51C93B",
"#  c #4BAF4A",
"$  c #53B652",
"%  c #5EBB5D",
"&  c #5CCC47",
"*  c #67CF53",
"=  c #72D25F",
"-  c #69C068",
";  c #7DD56B",
":  c #74C473",
">  c #7FC97E",
",  c #9E8A19",
"<  c #A78F17",
"1  c #A98F1D",
"2  c #A7901D",
"3  c #BA9716",
"4  c #B89915",
"5  c #B2961D",
"6  c #BB9C1A",
"7  c #858E26",
"8  c #8E832C",
"9  c #918426",
"0  c #978926",
"q  c #9B8B23",
"w  c #92862A",
"e  c #958829",
"r  c #9B8C2A",
"t  c #8C8534",
"y  c #8F8837",
"u  c #85813B",
"i  c #8C863A",
"p  c #8D8839",
"a  c #918732",
"s  c #938A32",
"d  c #9A8D33",
"f  c #938B3C",
"g  c #9E9035",
"h  c #A28E23",
"j  c #A69326",
"k  c #A6922D",
"l  c #A99429",
"z  c #AF982C",
"x  c #B49927",
"c  c #BB9D23",
"v  c #B09728",
"b  c #B39A2E",
"n  c #A89531",
"m  c #A1933E",
"M  c #C29C14",
"N  c #C99F17",
"B  c #C39E1D",
"V  c #C3A10F",
"C  c #D3A60F",
"Z  c #DAAD0B",
"A  c #DEB207",
"S  c #CCA114",
"D  c #C8A810",
"F  c #C5A41B",
"G  c #CCA219",
"H  c #D4A410",
"J  c #DEBD1B",
"K  c #E9AE02",
"L  c #E3AC09",
"P  c #ECB703",
"I  c #EBBB04",
"U  c #E2B309",
"Y  c #E2B70A",
"T  c #F0B401",
"R  c #C09D20",
"E  c #EFC003",
"W  c #ECC409",
"Q  c #F3C401",
"!  c #F6CD00",
"~  c #F6CB0B",
"^  c #F6D203",
"/  c #F9D100",
"(  c #F6D30E",
")  c #F8D308",
"_  c #FBDB08",
"`  c #EBCC1A",
"'  c #ECD01D",
"]  c #F7E10C",
"[  c #FBE40F",
"{  c #FFFF01",
"}  c #FBE514",
"|  c #FBE917",
" . c #F7E01B",
".. c #FDEE1F",
"X. c #F3D72F",
"o. c #FCEB21",
"O. c #FCEF2B",
"+. c #FDF324",
"@. c #FDF529",
"#. c #F9E435",
"$. c #FBED30",
"%. c #FDF534",
"&. c #8A8745",
"*. c #8E8941",
"=. c #89874B",
"-. c #8E8A4A",
";. c #948D42",
":. c #948E4A",
">. c #989247",
",. c #97904B",
"<. c #9C954B",
"1. c #9B9653",
"2. c #9E9856",
"3. c #A49C5A",
"4. c #A89F5D",
"5. c #989566",
"6. c #9D9863",
"7. c #A39D6A",
"8. c #A49F71",
"9. c #A7A16B",
"0. c #A9A16B",
"q. c #B0A76E",
"w. c #ADA574",
"e. c #A9A379",
"r. c #B2A975",
"t. c #B4AB7A",
"y. c #B9AE7B",
"u. c #87D877",
"i. c #FEED4E",
"p. c #FDF547",
"a. c #FEFD44",
"s. c #FFFE4E",
"d. c #FCEA57",
"f. c #FDF255",
"g. c #FFFC55",
"h. c #FEF45E",
"j. c #FFFF5C",
"k. c #FDF161",
"l. c #FFFE65",
"z. c #FFFE6C",
"x. c #FDF477",
"c. c #FFFF73",
"v. c #FFFF7B",
"b. c #91DB83",
"n. c #FFFE83",
"m. c #FFFF8C",
"M. c #FEF797",
"N. c #FFFF92",
"B. c #FFFF9C",
"V. c #FFFEA3",
"C. c #FFFFAC",
"Z. c #FFFFB2",
"A. c #FFFFBD",
"S. c #FFFFC3",
"D. c #FFFFCB",
"F. c #FFFFD3",
"G. c #FFFFDD",
"H. c #FFFFE6",
"J. c #FFFFEB",
"K. c #FFFFF3",
"L. c #FFFFFD",
/* pixels */
"+ + + + + + + # # # # # # # # # # # + # + + + # # # # # # # + + + + + + + + + # # # # # # # # # # # # # + + # + + # # # # # # + ",
"+ + + + + + + # # # # # # # + + + + + # + + + # # # # # # # # + + + + + + + + # # # # # # # + + + + # # + + # + # # # # # # + + ",
"+ + + + + + + # # + # # # # # + + + + + + + + # # + + + + # # + + + + + + + + # # + # # # # # + + + # # # + # # # # # # # + + + ",
"# + + # # # + # + + # # # # # # + + + + + + + # + + + + # # # + # + + # # # + # + + # # # # # # + + # # # # # # # # # + + + + + ",
"# # + + # # # + + + # # # # # # # + + + + + + + + + + + # # + + # # + + # # # + + + # # # # # # # + # # # # # # # # # # + + + + ",
"+ # + + + # # + + # # # # # + + # # + + + + + + + + + + + + + + + # + + + # # + + # # # # # + + # # # # # # # # # # # # # + + # ",
"+ + + + + + # + # # + # # + + # # # + + + + # # + + + + + + + + + + + + + + # + # # + # # + + # # # # # # # # # # # # # # # + # ",
"+ + + + + + + # # # + + # + # # # # + + + # # + + + + + + + + + + + + + + + + # # # + + # + # # # # # # # # # # # # # # + # + + ",
"# # # + + + + # # # # + # # # # # # + + # # # + + + # # # + + # # # # + + + + # # # # + # # # # # # # # # # # # # # # # + + + + ",
"# # + + + + + + # # # # # + + + + # # + # # # # + + + # # # # # # # + + + + + + # # # # # + + + + # # # + + + + # # # # # + + + ",
"# + + + + + + + + + # # + + + + # # # # # # # # # + + # # # # # # + + + + + + + + + # # + + + + # # # # # + + + + # # # # # + + ",
"+ + + + + + + + + + + + + + + # # # # # # # # # # # # # # # # # + + + + + + + + + + + + + + + # # # # # # # + + + + # + + + # # ",
"+ + + + # # # # + + + + + + + # # # # # # # # # # # # # # # # # + + + + # # # # + + + + + + + # # # # # # # + + + + + + + # # + ",
"# + + # # # # + + + + + # # # # # + # # + # # # # # # # # # # # # + + # # # # + + + + + # # # # # + # # + + + + # + + + # # + + ",
"# + # # # # + + + + + + + # # # + + # + + # # # # + + # # + + # # + # # # # + + + + + + + # # # + + + + + + + + # # + # # # + # ",
"# # # # # # + # # # + + + + # + + + + + + # # + # # + + + + # # # # # # # # + # # # + + + + # + + + + + + # # # # # # # # # # # ",
"# # # + + + # # # + + + + + + + + + + + # # + + + + + + + + + + # # # + + + # # # + + + + + + + + + + + + + # # # + + + + # # # ",
"# # # # + + # # + + + + + + + + + + + # # + + + + + + + # + + # # # # # + + # # + + + + + + + + + + + + + + + # + + + + # # # # ",
"# # # # # + # + + + + + + + + + + + + + + + + + + + # # # + # # # # # # # + # + + + + + + + + + + + + + + + + + + + + # # # # # ",
"# # # # # # # # + + + + + + + + + + + + + + + + + + # # # + = - - - # # # # + + + + + # # # + + + + + + + + + + + + + # # # # # ",
"# # # # # # # # # # # + + + + + + + + + + + + + + # - % u.@         @ & * # # + + + + + # # + + + + + # # # + + + + # # + + + # ",
"# # # # + + # # # # + + + + + + + + + + + + + + # % $       r.r.r.t.      = + + + + + + + # + + + + + + # # # + + # # # # + + + ",
"+ # # # # + + # # + + + + + + + + + + + + + + % -     w.<.,.:.m m ;.>.3.r.  O ; & + + + + + + + + + + + + # # + # # # # # + + + ",
"# # # # # # + # + + # + + + + + # + + + + + + *   y.2.p g b R R G c r e f 4.y.  u.& + # + + + + + + + + + + # + + + + + + + + + ",
"# # + # # # # # + + # # + + + # # + + + + + *   r.:.a e h R L Q P K S j r s <.y.  ; + # # + # # # + + + + + + + + + + + + + + + ",
"# + + # # # # # # # # # # + # # # + + # # $ . y.:.a e < V A P ! } ~ T S 6 c k <.y.X * + # # # # + + + # # # + # # # + + + + + + ",
"+ + + # # # # # + # # # # # # # + + + + $ -   1.w h D ' i.v.n.k.@.a._ Q U Y F d 4.  = + + # # + + + # # # + + + # # # + + + # # ",
"+ + + # # # # + + # # # # # # # # # # # :   9.i l Y o.c.B.C.D.K.G.m.g.p.) ^ W l f q.  u.+ # + + + + # # + + + + # # # # + # # # ",
"+ + # # # # + + # # # # # # # # # # # # %   ,.d H #.B.A.S.S.N.c.H.K.Z.S.h.} ( B d 3.  b.+ + + + + + + + + + + + # # # # # # # + ",
"+ # # # # # + # # # # # # # # + + # # + @   ;.n Y $.l.Z.G.C.a.{ j.J.J.K.V.o.) L n >.  @ ; + + + + # # + + + + # # # # # # # + + ",
"+ # # # # # # # # + + + # # + + # # # -   0.f j H ! l.S.n.z.l.g.s.N.H.L.Z.[ ! P v ;.r.  * + + + # # # # # # # # # # # # # # # + ",
"# # # # # # # # # # + + + + + + # # # #   9.a q B ] B.c.N.D.G.S.B.N.D.L.M._ | P l p r.  ; # + # # # # # + # # # # # # + + + + + ",
"# # # + # # # # # # # + + + + + + + # :   8.a 0 N [ c.j.H.L.L.H.L.J.J.K.h.@.p.Y q f r.  & # # # # # # + + # # + # # # # + + + + ",
"# # # + + # # # # # # + + + # + + + + =   0.i 9 M ^ +.n.L.L.L.A.S.K.K.C.s.v.#.M w f t.o & # # # # # + + + # # + + # # # # + + # ",
"+ # # # + # # # # # # + + + # # + + # u.+   *.w 3 K Q x.L.L.L.F.n.l.n.c.c.p.Z 2 e :.  = + + # # # # + + # # # # + # # # # # + # ",
"# # # # # # # # + # # + + + # # # + # # *   :.t 5 N Z d.H.L.L.K.S.m.l.l.%.I 4 0 t 1.  = # # # # # # + # # # # # # # # # # # # # ",
"# # # # # # # + + # # # # + + # # # # # ;   6.u k x 3 X.Z.J.L.J.D.V.l.o.E C 2 w y 9.7 # # # # + + + # # # # # # # # # # # # # # ",
"# # # # + # # + # # # # # # # # # # # # % #   -.f n , Z f.N.D.F.N.g...! Z 5 q t 1.  $ # # # # # + + # # # # # # # # # # # # # + ",
"+ + # + + # # # # # # # # # # # + + # # # -   e.:.f 9 1 U  .@.x.z.O./ P S z d ;.y.  = + # # # # # + # # # # # + # + + + # # # # ",
"+ + + + + # # # # # + + + # # + + # # # + * *   8.&.u 8 k B Z Z J ` W L F g >.q.  @ & + + + # # # # # # # # + + # # + + + + # # ",
"+ + + + + # # # # # # + + + + + + # # + + + : >   e.=.u i t r r q h j l g >.r.  + = + + + # # # # # # + # # + + # # # + + + + + ",
"+ + + + # # # + # # # # + + # # # # # + + # # - :     5.-.&.u t t p p ,.4.    & & # + + # # # # # # # + + # + # # + + + + + + + ",
"+ + # # # # # + + # # + + + + # # # # + # # # # % > #       8.7.7.7.      # & * # # + # # # # # # # # # + # # # # # + + + # + + ",
"# + + # # # # + + + + + + + + + # # # # # # # # # $ > : $ : 7       + ; - # + # # # # + + + # # # # # # # # # # # # # + + # # + ",
"+ + + + # # # # + + + + + + + + + # # # # # # # # # # # # # # : % - & + # # # # # # # + + # # # # # # # # # # # # # # # + # # # ",
"+ + + + + # + + + + + + + + + + # # # # # # # # # # # # # # # # # # # + # # # # # # # + # # + # # # # # + + + + # # # # # # # # ",
"+ + + + + + + + + + + + + # # # # # + # # # # # # # # # + # # # # # # # # # # # # # # # # # + + + # # + + + + # # # # # # + + # ",
"+ # # # # + + + + + + + + + # # # + + + # # # # + # # + + # # # # # # # # # # # # # # # # # + + + + + + + + # # # # # # + + # # ",
"# # # # + + # # # # + + + + + # # + + + + # # + + # # + # # # # # # # # # # # # # + # # # # # + + + + + + + + + + # # # + + # # ",
"# # # + + # # # # + + + + + + + # + + + + # + + + # # # # # # # # # # # # # # # # + + # # # # # + + + + + + + + # # # # + # # # ",
"# # # # # # # # + + + + + + + + + + + + + + + + # # # # # # # # # # # # # # # # + + + + # # # + + + + + + + + # # # # # # # # # ",
"# # # # # + + + + + + + + + + + + + + + + + + + + # # # # # # # + + + # # # # + + + + + + + + + + + + + + + + + + + # # # # # # ",
"# # # # # # # + + + # # # + + + + + + + + + + + # # # # # # # # # + + # # # # # + + # + + + + + + + + + + + + + + + + + # # # # ",
"# + + + + # # + # # # # + + + + + + + + # # + + + + + # # # # # # # + # # # # # # + # # + + + + + + + + + + + + + + + # # # # # ",
"+ + + + # # # # # # # + + + # # # + + + + # # + + + # # # # # # # # # # # # # # # # # # # + + + + + + # # # # + + + # # # # # + ",
"+ + + # # # # # # # # + + # # # + + + + + + # + + # # # # # # # # # # # # # # # + + + + # + # # # + + + # # # # + # # # + + + + ",
"+ + + + # + + + + # # # # # # # + + + + # + + + + + + # # # + + + # # # # # # # # + + + + # # # + + + + + # # # # # # # # + + + ",
"+ + + + + + + + # # # # # # # # # # + # # + + + + + + # # + + + # # # # # # # # # # + + + # # + + + + + + # # # + # # # # # + # ",
"# + + + + + + # # + + + + # # # # # # # # + + + # # + # # + + # # # # # # # # # # # # + + # + + + + # + # # # # + + # # # # # # ",
"+ + + + + + # # # # + + + + # # + # # # # # + # # + + + # + # # # # # # # # # # # # # # + + + # # # # # # # # # + + + # # + + # ",
"+ + + + + + # # # # # + + + # + + # # # # # # # # + + # # # # # # # # # # # # + + + # # + + + + # # # # # # # # # + + # + + # # ",
"+ + + + + + + # # # + + + + + + + # # # # # # # # + # # # # # # # # # # # # + + + # # # + + + + + # # # # # # # # # + # + # # # ",
"+ + + # # # + + + + + + + + + + # # # # # # # # + + + # # # # # # + # # # + + + # # + + + + + + + + # # # # # # # # # # # # # # ",
"+ + + + # # # # # # + + + + + + + # + + + # # # # + + + # + + + # + + + # + + + + + + + + # # # # + # # # + + + # # # # # + + + "
};
