/* XPM */
static char *result[] = {
/* columns rows colors chars-per-pixel */
"32 32 8 1 ",
"  c black",
". c #A22633",
"X c #F77622",
"o c #4AC035",
"O c #79C839",
"+ c #FEAE34",
"@ c #FEE761",
"# c white",
/* pixels */
"oooooooOOOooOOOOooOOOOoooooooOoo",
"ooooooooOOOOOOOOOOOOOooooooooooo",
"oOOOooooOOOOOOOOOooooooooooooooo",
"ooOOOooooOOOoooOOOoooooOoooooooo",
"oooOOOooooOoooOOOOOoooOOoooOOOoo",
"oooOOOOooooooOOOOOOoOoOOOoOOOooo",
"oOOOOoooooOoOOOOOOOOOOOOOOOOoooo",
"oooOOOoooOOO         ooOOOOooooo",
"ooOOOOOooOO @@@@#XXXX OOOOOooooo",
"oOOOOOOOoOO XXXXX@XXX OOOOOOooOO",
"OOOOOOOOOOO ++++X@XXX ooOOOOOoOO",
"OOOOOOOOOOO +X#+X@+++ oOOOOOOOOO",
"OOOOOOOOOOO X@@#X@... OOOOOOOOOO",
"OOOOOoooOOO X@@@X@XXX OOOOOOOOOO",
"ooOOoooOOOO X@X@X@XXX OOOOOooOOo",
"OooOooOOOOO X@++X@+++ OOOOOOooOo",
"OooOoOOOOOO XX@@X@+++ ooooOOoooo",
"OOoOOOOOOOO ++X@X@... OooooooooO",
"OOOOOOOOOOO X@X@X@XXX OOooooooOO",
"OOOOOOOOOOO X@@#X@... OOOooooOOO",
"OOOOOOOOOOO +X@#X@... OOOooooooO",
"OOOOOOOOOOO +X#+X@XXX OOooooooOO",
"OOOOOOOOOOO ++++X@XXX oooooooOOO",
"OOOOOOOOOOO @@@@#XXXX ooooooOOOO",
"OooooOOOOOOO         OOOoooooooO",
"OOooooOOOOOOOOoOOOooOOOooOooooOO",
"OOOooooOoooOOOOOOOOoOOooOOoooOOO",
"OOOoooooooOOooOOOOOOOOOOOOooOOOO",
"OooooOoooOOooOOOOOOOoooOOoooOOOO",
"oooooOOoOOOoOOOOOOOOOooooooooooo",
"ooOOOOOOOOOOOOOOOOOoOOoooooooooo",
"oooOOOooooOOOOOOOOOooOoooooooooo"
};
