/* XPM */
static char *result[] = {
/* columns rows colors chars-per-pixel */
"32 32 104 2 ",
"   c #0B060D",
".  c #150A17",
"X  c #1E0F22",
"o  c #221329",
"O  c #27142D",
"+  c #29152F",
"@  c #2B1833",
"#  c #341B3C",
"$  c #341D3D",
"%  c #391E43",
"&  c #3A1E42",
"*  c #3B1F45",
"=  c #3D244A",
"-  c #43234D",
";  c #42234E",
":  c #442450",
">  c #4B2859",
",  c #4C2858",
"<  c #4D295B",
"1  c #4F2C5B",
"2  c #4F2E5E",
"3  c #552D63",
"4  c #542D64",
"5  c #562E66",
"6  c #582F68",
"7  c #583368",
"8  c #5A346B",
"9  c #5E326C",
"0  c #5D326F",
"q  c #5E326E",
"w  c #5F3371",
"e  c #5C3872",
"r  c #61366F",
"t  c #613473",
"y  c #613872",
"u  c #633975",
"i  c #673779",
"p  c #66377A",
"a  c #6A3B79",
"s  c #68387C",
"d  c #6A397E",
"f  c #6A3D7C",
"g  c #6C3E7F",
"h  c gray31",
"j  c gray32",
"k  c #565656",
"l  c gray34",
"z  c #676767",
"x  c #6F6F6F",
"c  c #777777",
"v  c gray50",
"b  c #4AC035",
"n  c #79C839",
"m  c #6F3C85",
"M  c #703C83",
"N  c #713D87",
"B  c #733E89",
"V  c #734286",
"C  c #754389",
"Z  c #79418D",
"A  c #784190",
"S  c #7A4292",
"D  c #7C4393",
"F  c #7C4790",
"G  c #7E4893",
"H  c #824697",
"J  c #83479C",
"K  c #854C9A",
"L  c #874D9D",
"P  c #8B4BA1",
"I  c #8A4BA6",
"U  c #8C4CA6",
"Y  c #8E4DA8",
"T  c #8E51A4",
"R  c #9052A7",
"E  c #9450AB",
"W  c #9658AC",
"Q  c #975AAE",
"!  c #9452B0",
"~  c #9654B1",
"^  c #9B59B1",
"/  c #9D5EB0",
"(  c #9A5CB5",
")  c #9C62B1",
"_  c #9D64B3",
"`  c #A163B6",
"'  c #A26CB6",
"]  c #A16EB8",
"[  c #A36EB8",
"{  c #A76DBB",
"}  c #A771BF",
"|  c #A876BB",
" . c #A976BB",
".. c #A978BD",
"X. c gray53",
"o. c #979797",
"O. c #9F9F9F",
"+. c #AE80C0",
"@. c #B082C2",
"#. c #B381C5",
"$. c #B48AC5",
"%. c #B58AC5",
"&. c #BF95CF",
"*. c #C5A0D4",
/* pixels */
"b b b b b b b n n n b b n n n n b b n n n n b b b b b b b n b b ",
"b b b b b b b b n n n n n n n n n n n n n b b b b b b b b b b b ",
"b n n n b b b b n n n n v v v v v v v v b b b b b b b b b b b b ",
"b b n n n b b b b n v v v j j j j j j v v v b n b b b b b b b b ",
"b b b n n n b b v v v j j k k k k k k j j v v v b b b n n n b b ",
"b b b n n n n v v j k k k k v v v v k k k k j v v b n n n b b b ",
"b n n n n b v v j k k v v l , f f q v v v k k j v v n n b b b b ",
"b b b n n v v j k k v 3 2 7 8 C C g = 2 & h k k j v v b b b b b ",
"b b n n v v j k k h - y G G V V V V V G V 3 l k k j v v b b b b ",
"b n n n v j k k l , V G V V i i i i i V G y 3 h k k j v b b n n ",
"n n n v v k k v - f G V i i i 6 6 6 i i V g $.P z k k v v b n n ",
"n n n v j k v - f G V i i 6 6 < < < 6 i i F ]  .^ v k j v n n n ",
"n n v v j k v   u f 3 - 6 < < < ; < < 6 i H W G | c k j v v n n ",
"n n v j k k v y V i i 6 * + ; ; % ; < * # E f G K O.k k j v n n ",
"b b v j k v i _ ) Z D S 5 O X . @ O O : Y M *.%.@.{ v k j v n b ",
"n b v j k v ) L V i 6 < m A $ o @ ; > ( N D Z T @.' v k j v n b ",
"n b v j k v F C V H d J S 0 I / 1 r m 0 s D #.| [ ' v k j v b b ",
"n n v j k v Z G %.M M B J > > a m 4 0 w N d P | ..E v k j v b n ",
"n n v j k k c F R K M ~ } U m p m p S s D M H W ' c k k j v n n ",
"n n v v j k v e G T i P d 5 5 4 ! S w t i H K L +.v k j v v n n ",
"n n n v j k v 9 W L K P i t s S s t d i Z W R W { v k j v b b n ",
"n n n v v k k z M T L +.H &.Y 6 6 i H H W R V #.v k k v v b n n ",
"n n n n v j k k v P F L ) E ^ Z H P +.T L V ^ x k k j v b n n n ",
"n n n n v v j k k x P K Q F K W W T R G V P v k k j v v n n n n ",
"n b b b b v v j k k v P ) T G G G G V K { v k k j v v b b b b n ",
"n n b b b b v v j k k c c o.P W W ` X.X.v k k j v v b b b b n n ",
"n n n b b b b v v j k k k k x c x z k k k k j v v n b b b n n n ",
"n n n b b b b b v v v j j k k k k k k j j v v v n n b b n n n n ",
"n b b b b n b b b n v v v j j j j j j v v v b n n b b b n n n n ",
"b b b b b n n b n n n b v v v v v v v v n b b b b b b b b b b b ",
"b b n n n n n n n n n n n n n n n n n b n n b b b b b b b b b b ",
"b b b n n n b b b b n n n n n n n n n b b n b b b b b b b b b b "
};
