/* XPM */
static char *result[] = {
/* columns rows colors chars-per-pixel */
"32 32 98 2 ",
"   c #221329",
".  c #27142D",
"X  c #2B1833",
"o  c #301938",
"O  c #341D3D",
"+  c #3F3F3F",
"@  c #341F40",
"#  c #391E43",
"$  c #3A1E42",
"%  c #3D2047",
"&  c #3D2247",
"*  c #43234D",
"=  c #42234E",
"-  c #442450",
";  c #462552",
":  c #462954",
">  c #4B2859",
",  c #4C2858",
"<  c #4D295B",
"1  c #4F2C5B",
"2  c #4F2A5D",
"3  c #4F2E5E",
"4  c #552D63",
"5  c #542D64",
"6  c #562E66",
"7  c #582F68",
"8  c #583368",
"9  c #5A346B",
"0  c #5D326F",
"q  c #5E326E",
"w  c #5F3371",
"e  c #613473",
"r  c #613872",
"t  c #633975",
"y  c #673779",
"u  c #66377A",
"i  c #6A3B79",
"p  c #68387C",
"a  c #6A397E",
"s  c #6A3D7C",
"d  c #6C3E7F",
"f  c gray28",
"g  c #4E4E4E",
"h  c gray31",
"j  c gray32",
"k  c #565656",
"l  c gray34",
"z  c #676767",
"x  c gray50",
"c  c #4AC035",
"v  c #79C839",
"b  c #6F3C85",
"n  c #703C83",
"m  c #713D87",
"M  c #733E89",
"N  c #734083",
"B  c #734286",
"V  c #754389",
"C  c #79418D",
"Z  c #7C4393",
"A  c #7C4790",
"S  c #7E4893",
"D  c #824697",
"F  c #854C9A",
"G  c #85489E",
"H  c #874D9D",
"J  c #8B4BA1",
"K  c #8A4BA6",
"L  c #8C4CA6",
"P  c #8E51A3",
"I  c #8E51A4",
"U  c #9052A7",
"Y  c #9450AB",
"T  c #9658AC",
"R  c #975AAE",
"E  c #9452B0",
"W  c #9654B1",
"Q  c #9B59B1",
"!  c #9A5CB5",
"~  c #9C62B1",
"^  c #9D62B1",
"/  c #9D64B3",
"(  c #A26CB6",
")  c #A36EB8",
"_  c #A876BB",
"`  c #A978BD",
"'  c #AD77C0",
"]  c gray53",
"[  c #979797",
"{  c #9F9F9F",
"}  c #B7B7B7",
"|  c #B082C2",
" . c #B381C5",
".. c #B58AC5",
"X. c #BD94CF",
"o. c #C8A8D4",
"O. c #CEB2D9",
"+. c #DFCBE8",
/* pixels */
"c c c c c c c v v v c c v v v v c c v v v v c c c c c c c v c c ",
"c c c c c c c c v v v v v v v v v v v v v c c c c c c c c c c c ",
"c v v v c c c c v v v v x x x x x x x x c c c c c c c c c c c c ",
"c c v v v c c c c v x x x j j j j j j x x x c v c c c c c c c c ",
"c c c v v v c c x x x j j k k k k k k j j x x x c c c v v v c c ",
"c c c v v v v x x j k k k k x x x x k k k k j x x c v v v c c c ",
"c v v v v c x x j k k x x x y B ~ C x x x k k j x x v v c c c c ",
"c c c v v x x j k k x y A ~ / U S U T ( q x k k j x x c c c c c ",
"c c v v x x j k k x y ~ U H I ~ I I B ) 8 y x k k j x x c c c c ",
"c v v v x j k k x y I U ~ ( n C n Q n o.9 @ , x k k j x c c v v ",
"v v v x x k k x y _ U F n C J G X.+.n Q 8 V @ 4 x k k x x c v v ",
"v v v x j k x y I / F D J M Z L ! E a C $ s S : y x k j x v v v ",
"v v x x j k x B R A D n a w p L u p w ; 4 y B V 8 x k j x x v v ",
"v v x j k k x F A D y e w p 0 0 0 > < - 2 y B S 3 l k k j x v v ",
"c c x j k x y U T C e p w u 0 b 1 # # - 7 y y B V , x k j x v c ",
"v c x j k x B U I n a p 0 0 i N X # . < < 7 y B t 3 x k j x v c ",
"v c x j k x B ` ~ y a m w u K O   O # = < 7 y B V 8 x k j x c c ",
"v v x j k x y R I y C e p K 5 & = # = < < 7 y B V , x k j x c v ",
"v v x j k k x F | B J a p p = 0 = o < < 7 y y B r h k k j x v v ",
"v v x x j k x ~ ` B D y W p p = < - < 7 y y B S s f k j x x v v ",
"v v v x j k x n ..H I n  .a m 6 < ; 7 y y B S B 4 f k j x c c v ",
"v v v x x k k x Y T S F J Y M % M , y y B S B , + k k x x c v v ",
"v v v v x j k k x Q I R B ' D * J y 3 B S B q l g k j x c v v v ",
"v v v v x x j k k ] D ( / O.T A : P V d 8 q l g k j x x v v v v ",
"v c c c c x x j k k [ D F B | R U V ^ r * + g k j x x c c c c v ",
"v v c c c c x x j k k x { } Q ( O.J z x x k k j x x c c c c v v ",
"v v v c c c c x x j k k k k x x x x k k k k j x x v c c c v v v ",
"v v v c c c c c x x x j j k k k k k k j j x x x v v c c v v v v ",
"v c c c c v c c c v x x x j j j j j j x x x c v v c c c v v v v ",
"c c c c c v v c v v v c x x x x x x x x v c c c c c c c c c c c ",
"c c v v v v v v v v v v v v v v v v v c v v c c c c c c c c c c ",
"c c c v v v c c c c v v v v v v v v v c c v c c c c c c c c c c "
};
