/* XPM */
static char *result[] = {
/* columns rows colors chars-per-pixel */
"32 32 10 1 ",
"  c #0B0B09",
". c #3A3A3A",
"X c gray26",
"o c gray29",
"O c gray32",
"+ c #565656",
"@ c gray50",
"# c #4AC035",
"$ c #79C839",
"% c #C6B511",
/* pixels */
"#######$$$##$$$$##$$$$#######$##",
"########$$$$$$$$$$$$$###########",
"#$$$####$$$$@@@@@@@@############",
"##$$$####$@@@oooooo@@@#$########",
"###$$$##@@@oo++++++oo@@@###$$$##",
"###$$$$@@o++++@@@@++++o@@#$$$###",
"#$$$$#@@o++@@@OoX.@@@++o@@$$####",
"###$$@@o++@.XooOX.XoO@++o@@#####",
"##$$@@o++@oX.XoOoX.XoO@++o@@####",
"#$$$@o++@ooX.XoOoX.XoOo@++o@##$$",
"$$$@@++@.OX.XoOoX.XoOoX.@++@@#$$",
"$$$@o+@X.OX.XoOoX.XoOoX.X@+o@$$$",
"$$@@o+@.XoOX.XoOoX.XoOoX.@+o@@$$",
"$$@o++@.XoOX.XoOoX.XoOoX.@++o@$$",
"##@o+@.XoOX.XoOoX.XoOoX.Xo@+o@$#",
"$#@o+@.XoO  %%OoX.  %%X.Xo@+o@$#",
"$#@o+@  %%.XoO  %%oOoX  %%@+o@##",
"$$@o+@.XoOX.XoOoX.XoOoX.Xo@+o@#$",
"$$@o++@XoOX.XoOoX.XoOoX.X@++o@$$",
"$$@@o+@XoOX.XoOoX.XoOoX.X@+o@@$$",
"$$$@o+@.XoOX.OoX.XoOoXoX.@+o@##$",
"$$$@@++@XoOX.OoX.XoOoXoX@++@@#$$",
"$$$$@o++@oO.oOoOX.XOoXo@++o@#$$$",
"$$$$@@o++@o.oOoOX.XoOo@++o@@$$$$",
"$####@@o++@o.oOoOX.XO@++o@@####$",
"$$####@@o++@@@OoOX@@@++o@@####$$",
"$$$####@@o++++@@@@++++o@@$###$$$",
"$$$#####@@@oo++++++oo@@@$$##$$$$",
"$####$###$@@@oooooo@@@#$$###$$$$",
"#####$$#$$$#@@@@@@@@$###########",
"##$$$$$$$$$$$$$$$$$#$$##########",
"###$$$####$$$$$$$$$##$##########"
};
