/* XPM */
static char *result[] = {
/* columns rows colors chars-per-pixel */
"32 32 107 2 ",
"   c #010001",
".  c #201024",
"X  c #221329",
"o  c #2B1833",
"O  c #301938",
"+  c #341F40",
"@  c #391E43",
"#  c #3A1E42",
"$  c #3B1F45",
"%  c #3D2047",
"&  c #3D244A",
"*  c #42234E",
"=  c #442450",
"-  c #462751",
";  c #462552",
":  c #4B2859",
">  c #4C2858",
",  c #4D295B",
"<  c #4F2A5D",
"1  c #4F2E5E",
"2  c #552D63",
"3  c #542D64",
"4  c #562E66",
"5  c #582F68",
"6  c #583165",
"7  c #583368",
"8  c #5A346B",
"9  c #5D326F",
"0  c #5E326E",
"q  c #5F3371",
"w  c #613473",
"e  c #613872",
"r  c #603975",
"t  c #633975",
"y  c #673779",
"u  c #66377A",
"i  c #68387C",
"p  c #6A397E",
"a  c #6A3D7C",
"s  c #6C3E7F",
"d  c gray28",
"f  c gray31",
"g  c gray32",
"h  c #565656",
"j  c gray34",
"k  c gray37",
"l  c #6F6F6F",
"z  c #777777",
"x  c gray50",
"c  c #4AC035",
"v  c #79C839",
"b  c #6F3C85",
"n  c #703C83",
"m  c #713D87",
"M  c #733E89",
"N  c #734286",
"B  c #754389",
"V  c #79418D",
"C  c #7C458D",
"Z  c #784190",
"A  c #7A4292",
"S  c #7C4393",
"D  c #7C4790",
"F  c #7E4893",
"G  c #824697",
"H  c #83479C",
"J  c #854C9A",
"K  c #874D9D",
"L  c #8B4BA1",
"P  c #8A4BA6",
"I  c #8E51A4",
"U  c #9052A7",
"Y  c #9450AB",
"T  c #9754AB",
"R  c #9658AC",
"E  c #975AAE",
"W  c #9452B0",
"Q  c #9B59B1",
"!  c #9C62B1",
"~  c #9D64B3",
"^  c #A163B6",
"/  c #A26CB6",
"(  c #A066BA",
")  c #A269BB",
"_  c #A36EB8",
"`  c #A76DBB",
"'  c #A771BF",
"]  c #A876BB",
"[  c #A978BD",
"{  c #AD77C0",
"}  c #B07FC5",
"|  c gray53",
" . c gray56",
".. c #9F9F9F",
"X. c #B7B7B7",
"o. c #AE80C0",
"O. c #B080C0",
"+. c #B082C2",
"@. c #B381C5",
"#. c #B58AC5",
"$. c #BB90C9",
"%. c #BD96CC",
"&. c #BF95CF",
"*. c #C5A0D4",
"=. c #C8A8D4",
"-. c #DBC6E3",
";. c #DDC8E5",
/* pixels */
"c c c c c c c v v v c c v v v v c c v v v v c c c c c c c v c c ",
"c c c c c c c c v v v v v v v v v v v v v c c c c c c c c c c c ",
"c v v v c c c c v v v v x x x x x x x x c c c c c c c c c c c c ",
"c c v v v c c c c v x x x g g g g g g x x x c v c c c c c c c c ",
"c c c v v v c c x x x g g h h h h h h g g x x x c c c v v v c c ",
"c c c v v v v x x g h h h h x x x x h h h h g x x c v v v c c c ",
"c v v v v c x x g h h x x f > e e 0 j f x h h g x x v v c c c c ",
"c c c v v x x g h h x 2 7 e F t s s N N > f h h g x x c c c c c ",
"c c v v x x g h h x 2 7 F F 7 a N N e t N y f h h g x x c c c c ",
"c v v v x g h h x y 1 F a + 2 > y y y N t a y f h h g x c c v v ",
"v v v x x h h x y ] r J V V 2 % < 5 y y N F a 2 j h h x x c v v ",
"v v v x g h x y ! ~ N n n w S = . $ 5 y y N s N 2 x h g x v v v ",
"v v x x g h x ! U R *.Q p q q m   , = ; y y N 8 e j h g x x v v ",
"v v x g h h x ] ] L L ) i H b 3 @ @ , , < 0 7 s N f h h g x v v ",
"c c x g h x Q F I Y p W m b Z 9 o O * , 5 0 0 e B 2 j h g x v c ",
"v c x g h x #.U I Y } i 3 P 6 C - * @ , , 5 0 e B N d h g x v c ",
"v c x g h x ] U I Q p , A 3 u T $.X O * , 5 # & 8 N f h g x c c ",
"v v x g h x ^ E D Y G 5 4 * 3 6 9 ' Z 4 q < 2 1 F y x h g x c v ",
"v v x g h h ..D K ! n w , q 3 * u : H ( S Q G O.a j h h g x v v ",
"v v x x g h x I K N Q n 5 q , 9 , 4 q M L &.=.%.N  .h g x x v v ",
"v v v x g h x ` I F D Q L 5 4 , 4 p p G ^ D K #.` X.h g x c c v ",
"v v v x x h h x Q R F N G Q p S w y V n ] %.R V  .h h x x c v v ",
"v v v v x g h h | Y ! K D G G Q ^ ^ J o._ / @.x k h g x c v v v ",
"v v v v x x g h h  .L R _ J D D R / +.[ -.{  .h h g x x v v v v ",
"v c c c c x x g h h l V I ] ;.%.+.U D J Y l h h g x x c c c c v ",
"v v c c c c x x g h h x x x y N ! Y x z x h h g x x c c c c v v ",
"v v v c c c c x x g h h h h x x x x h h h h g x x v c c c v v v ",
"v v v c c c c c x x x g g h h h h h h g g x x x v v c c v v v v ",
"v c c c c v c c c v x x x g g g g g g x x x c v v c c c v v v v ",
"c c c c c v v c v v v c x x x x x x x x v c c c c c c c c c c c ",
"c c v v v v v v v v v v v v v v v v v c v v c c c c c c c c c c ",
"c c c v v v c c c c v v v v v v v v v c c v c c c c c c c c c c "
};
