/* XPM */
static char *result[] = {
/* columns rows colors chars-per-pixel */
"32 32 94 2 ",
"   c black",
".  c #100914",
"X  c #221329",
"o  c #27142D",
"O  c #2B1631",
"+  c #341B3C",
"@  c #341D3D",
"#  c #3F3F3F",
"$  c #3A1E42",
"%  c #3B1F45",
"&  c #43234D",
"*  c #42234E",
"=  c #442450",
"-  c #462954",
";  c #4B2859",
":  c #4C2858",
">  c #4D295B",
",  c #4F2C5B",
"<  c #4F2A5D",
"1  c #552D63",
"2  c #542D64",
"3  c #562E66",
"4  c #582F68",
"5  c #583165",
"6  c #583368",
"7  c #5A346B",
"8  c #5D326F",
"9  c #5E326E",
"0  c #5F3371",
"q  c #61366F",
"w  c #613473",
"e  c #613872",
"r  c #673779",
"t  c #66377A",
"y  c #68387C",
"u  c #6A397E",
"i  c #6A3D7C",
"p  c #6C3E7F",
"a  c #464646",
"s  c gray31",
"d  c gray32",
"f  c #565656",
"g  c gray34",
"h  c #777777",
"j  c gray50",
"k  c #4AC035",
"l  c #79C839",
"z  c #6F3C85",
"x  c #703C83",
"c  c #713D87",
"v  c #733E89",
"b  c #734286",
"n  c #754389",
"m  c #79418D",
"M  c #7A4292",
"N  c #7C4393",
"B  c #7C4790",
"V  c #7E4893",
"C  c #824697",
"Z  c #83479C",
"A  c #854C99",
"S  c #854C9A",
"D  c #85489E",
"F  c #874D9D",
"G  c #8B4BA1",
"H  c #8E4DA8",
"J  c #8E51A4",
"K  c #9052A7",
"L  c #9450AB",
"P  c #9658AC",
"I  c #975AAE",
"U  c #9350B0",
"Y  c #9452B0",
"T  c #9B59B1",
"R  c #9A5CB5",
"E  c #9C5EB6",
"W  c #9C62B1",
"Q  c #9D64B3",
"!  c #A163B6",
"~  c #A26CB6",
"^  c #A76DBB",
"/  c #A771BF",
"(  c #A876BB",
")  c #A978BD",
"_  c #AE80C0",
"`  c #B082C2",
"'  c #B58AC5",
"]  c #B98BCA",
"[  c #BC94CA",
"{  c #BD96CC",
"}  c #C5A0D4",
"|  c #C8A8D4",
" . c #D6BEE0",
".. c #E3D2EA",
/* pixels */
"k k k k k k k l l l k k l l l l k k l l l l k k k k k k k l k k ",
"k k k k k k k k l l l l l l l l l l l l l k k k k k k k k k k k ",
"k l l l k k k k l l l l j j j j j j j j k k k k k k k k k k k k ",
"k k l l l k k k k l j j j d d d d d d j j j k l k k k k k k k k ",
"k k k l l l k k j j j d d f f f f f f d d j j j k k k l l l k k ",
"k k k l l l l j j d f f f f j j j j f f f f d j j k l l l k k k ",
"k l l l l k j j d f f j j j L S ( r j j j f f d j j l l k k k k ",
"k k k l l j j d f f j r S J K K K I S J G j f f d j j k k k k k ",
"k k l l j j d f f j G S K I ~ W ~ P P F S T j f f d j j k k k k ",
"k l l l j d f f j C S I B P G m L L L _ Q ~ C j f f d j k k l l ",
"l l l j j f f j m ~ K J G m r 4 4 4 r G W ` P L j f f j j k l l ",
"l l l j d f j r P K J m r 4 w 0 c R v ] } ( I _ r j f d j l l l ",
"l l j j d f j J ) J x x D Z Y Z U R y u T ! W I b j f d j j l l ",
"l l j d f f h W W G C E y M 2 2 z 2 M / H T B n b j f f d j l l ",
"k k j d f h m ) _ ^ v Z y * * * q t 8 3 v C m i 7 r j f d j l k ",
"l k j d f j S { S ^ N > * z q , 5 ; 8 0 3 + : e n - j f d j l k ",
"l k j d f j |  .b L w c 3 o o . X @ * *   O & e V 6 j f d j k k ",
"l l j d f j r ..b C C 4 > * * @ * * * > % 4 r b V & j f d j k l ",
"l l j d f f j ' n A r 4 > > * * * * = = 4 r r b e g f f d j l l ",
"l l j j d f j J n P r r 4 > > * = = > 4 r r b V e j f d j j l l ",
"l l l j d f j r [ V b r 1 < % % > 4 4 r r b V i 9 j f d j k k l ",
"l l l j j f a g 9 6 p i r r 4 4 4 r r r b V b 1 j f f j j k l l ",
"l l l l j d f f j $ b V b r r r r r b b V b 1 g f f d j k l l l ",
"l l l l j j d f f g : b V b b b b b V V b 1 g f f d j j l l l l ",
"l k k k k j j d f f g 1 i b V V V V e e : j f f d j j k k k k l ",
"l l k k k k j j d f f j j # 9 e 6 1 s j j f f d j j k k k k l l ",
"l l l k k k k j j d f f f f j j j j f f f f d j j l k k k l l l ",
"l l l k k k k k j j j d d f f f f f f d d j j j l l k k l l l l ",
"l k k k k l k k k l j j j d d d d d d j j j k l l k k k l l l l ",
"k k k k k l l k l l l k j j j j j j j j l k k k k k k k k k k k ",
"k k l l l l l l l l l l l l l l l l l k l l k k k k k k k k k k ",
"k k k l l l k k k k l l l l l l l l l k k l k k k k k k k k k k "
};
