/* XPM */
static char *_4ad2bbc812442dfd9cc4eae92a7626b9MRKBYHFt2Cgf8vt[] = {
/* columns rows colors chars-per-pixel */
"32 32 15 1 ",
"  c #221329",
". c #2B1833",
"X c #341D3D",
"o c #42234E",
"O c #4D295B",
"+ c #582F68",
"@ c #673779",
"# c gray29",
"$ c #565656",
"% c gray50",
"& c #4AC035",
"* c #79C839",
"= c #734286",
"- c #79418D",
"; c #A978BD",
/* pixels */
"&&&&&&&***&&****&&****&&&&&&&*&&",
"&&&&&&&&*************&&&&&&&&&&&",
"&***&&&&****%%%%%%%%&&&&&&&&&&&&",
"&&***&&&&*%%%######%%%&*&&&&&&&&",
"&&&***&&%%%##$$$$$$##%%%&&&***&&",
"&&&****%%#$$$$%%%%$$$$#%%&***&&&",
"&****&%%#$$%%%@==@%%%$$#%%**&&&&",
"&&&**%%#$$%@==;;;;==@%$$#%%&&&&&",
"&&**%%#$$%@=;;=====;=@%$$#%%&&&&",
"&***%#$$%@=;==@@@@@=;=@%$$#%&&**",
"***%%$$%@=;=@@-+++@@=;=@%$$%%&**",
"***%#$%@=;=@@++OOO+@@=;=@%$#%***",
"**%%#$%=;=@@+OOOoOO+@@=;=%$#%%**",
"**%#$$%==@@+OOooooOO+@=;=%$$#%**",
"&&%#$%@;=@+OOoooXooO+@@=;@%$#%*&",
"*&%#$%=;=@+OooX  ooOO+@=;=%$#%*&",
"*&%#$%=;=@+OOoo .XooO+@=;=%$#%&&",
"**%#$%@;=@@+OooXoooOO+@=;@%$#%&*",
"**%#$$%=;=@+OOooooOO+@@==%$$#%**",
"**%%#$%=;=@@+OOoOOO+@@=;=%$#%%**",
"***%#$%@=;=@@+OOO++@@=;=@%$#%&&*",
"***%%$$%@=;=@@+++@@@=;=@%$$%%&**",
"****%#$$%@=;=@@@@@==;=@%$$#%&***",
"****%%#$$%@=;=====;;=@%$$#%%****",
"*&&&&%%#$$%@==;;;;==@%$$#%%&&&&*",
"**&&&&%%#$$%%%@==@%%%$$#%%&&&&**",
"***&&&&%%#$$$$%%%%$$$$#%%*&&&***",
"***&&&&&%%%##$$$$$$##%%%**&&****",
"*&&&&*&&&*%%%######%%%&**&&&****",
"&&&&&**&***&%%%%%%%%*&&&&&&&&&&&",
"&&*****************&**&&&&&&&&&&",
"&&&***&&&&*********&&*&&&&&&&&&&"
};
