/* XPM */
static char *result[] = {
/* columns rows colors chars-per-pixel */
"32 32 95 2 ",
"   c black",
".  c #080409",
"X  c #201024",
"o  c #27142D",
"O  c #2B1631",
"+  c #2B1833",
"@  c #301938",
"#  c #321A3A",
"$  c #341D3D",
"%  c #3F3F3F",
"&  c #391E43",
"*  c #3A1E42",
"=  c #3D244A",
"-  c #43234D",
";  c #42234E",
":  c #442450",
">  c #462751",
",  c #4C2858",
"<  c #4D295B",
"1  c #4F2A5D",
"2  c #4F2E5E",
"3  c #552D5F",
"4  c #552D63",
"5  c #562E66",
"6  c #582F68",
"7  c #583165",
"8  c #583368",
"9  c #5A346B",
"0  c #5D326F",
"q  c #5E326E",
"w  c #5F3371",
"e  c #613473",
"r  c #613872",
"t  c #633975",
"y  c #673779",
"u  c #66377A",
"i  c #68387C",
"p  c #6A3D7C",
"a  c #6C3E7F",
"s  c gray28",
"d  c gray31",
"f  c gray32",
"g  c #565656",
"h  c gray34",
"j  c #676767",
"k  c #6F6F6F",
"l  c #777777",
"z  c gray50",
"x  c #4AC035",
"c  c #79C839",
"v  c #703C83",
"b  c #733E89",
"n  c #734286",
"m  c #79418D",
"M  c #784190",
"N  c #7A4292",
"B  c #7C4393",
"V  c #7C4790",
"C  c #7E4893",
"Z  c #824697",
"A  c #854A97",
"S  c #81469B",
"D  c #83479C",
"F  c #854C9A",
"G  c #85489E",
"H  c #874D9D",
"J  c #8B4BA1",
"K  c #8E51A4",
"L  c #9052A7",
"P  c #9450AB",
"I  c #9658AC",
"U  c #975AAE",
"Y  c #9452B0",
"T  c #9B59B1",
"R  c #9C62B1",
"E  c #9D64B3",
"W  c #A163B6",
"Q  c #A26CB6",
"!  c #A36EB8",
"~  c #A76DBB",
"^  c #A771BF",
"/  c #A876BB",
"(  c #A978BD",
")  c #AD77C0",
"_  c #9F9F9F",
"`  c #AFAFAF",
"'  c #AE80C0",
"]  c #B082C2",
"[  c #B58AC5",
"{  c #B68CC7",
"}  c #B98BCA",
"|  c #BB94CA",
" . c #BF95CF",
".. c #C19ECF",
"X. c #DBC6E3",
/* pixels */
"x x x x x x x c c c x x c c c c x x c c c c x x x x x x x c x x ",
"x x x x x x x x c c c c c c c c c c c c c x x x x x x x x x x x ",
"x c c c x x x x c c c c z z z z z z z z x x x x x x x x x x x x ",
"x x c c c x x x x c z z z f f f f f f z z z x c x x x x x x x x ",
"x x x c c c x x z z z f f g g g g g g f f z z z x x x c c c x x ",
"x x x c c c c z z f g g g g z z z z g g g g f z z x c c c x x x ",
"x c c c c x z z f g g z z z y n n y z z z g g f z z c c x x x x ",
"x x x c c z z f g g z y / / ! ! E U F V y z g g f z z x x x x x ",
"x x c c z z f g g z T R U E F I I | V L K v z g g f z z x x x x ",
"x c c c z f g g k P ' ! R F m v m J m F U F Z j g g f z x x c c ",
"c c c z z g g l J / U F v m v e B e J P I ! Q T j g g z z x c c ",
"c c c z f g z J X.{ F y y e e 5 w < 6 v P / H V ) k g f z c c c ",
"c c z z f g z K ! ' m v G i w w 0 5 5 b m W I ] n _ g f z z c c ",
"c c z f g g z Q R y ) B Y ^ S u u M N 5 6 m K L n ` g g f z c c ",
"x x z f g z y U p m O # : &   ^ A 0 ; i b  .} F C ~ z g f z c x ",
"c x z f g z ..( F - 6 < ; ;   . > 0 M 5 < 6 v R C [ z g f z c x ",
"c x z f g z V a 8 y 6 < < ; o + $ 7 u u i B y ' ( F z g f z x x ",
"c c z f g z 3 t 8 y y 6 < ; ; + & o ; 5 D G ~ V C y z g f z x c ",
"c c z f g g z r 9 n y 6 < < ; ; ; @ X : 1 * 4 r = % g g f z c c ",
"c c z z f g z 8 a n y y 6 < < ; < < < 6 y y n C r h g f z z c c ",
"c c c z f g z , r a n y y 6 < < < 6 6 y y n C n - z g f z x x c ",
"c c c z z g g s q 8 C n y y 6 6 6 y y y n C n * z g g z z x c c ",
"c c c c z f g g % , p C n y y y y y n n C n 4 d g g f z x c c c ",
"c c c c z z f g g s 4 r C n n n n n C C r - h g g f z z c c c c ",
"c x x x x z z f g g h q 8 r C C C C r 8 q z g g f z z x x x x c ",
"c c x x x x z z f g g z z d 4 2 p - d z z g g f z z x x x x c c ",
"c c c x x x x z z f g g g g z z z z g g g g f z z c x x x c c c ",
"c c c x x x x x z z z f f g g g g g g f f z z z c c x x c c c c ",
"c x x x x c x x x c z z z f f f f f f z z z x c c x x x c c c c ",
"x x x x x c c x c c c x z z z z z z z z c x x x x x x x x x x x ",
"x x c c c c c c c c c c c c c c c c c x c c x x x x x x x x x x ",
"x x x c c c x x x x c c c c c c c c c x x c x x x x x x x x x x "
};
