/* XPM */
static char *result[] = {
/* columns rows colors chars-per-pixel */
"32 32 92 1 ",
"  c #1E0F22",
". c #201024",
"X c #221329",
"o c #27142D",
"O c #29152F",
"+ c #2C1A36",
"@ c #2E1B39",
"# c #311937",
"$ c #341D3D",
"% c #3F3F3F",
"& c #341F40",
"* c #391E43",
"= c #3A1E42",
"- c #3D2047",
"; c #3D244A",
": c #3F254D",
"> c #43234D",
", c #42234E",
"< c #442450",
"1 c #462552",
"2 c #462954",
"3 c #4C2858",
"4 c #4D295B",
"5 c #4F2A5D",
"6 c #4F2E5E",
"7 c #552D63",
"8 c #542D64",
"9 c #562E66",
"0 c #582F68",
"q c #583368",
"w c #5A346B",
"e c #5D326F",
"r c #5E326E",
"t c #613473",
"y c #613872",
"u c #633975",
"i c #673779",
"p c #66377A",
"a c #68387C",
"s c #6A3D7C",
"d c #6C3E7F",
"f c gray28",
"g c gray32",
"h c #565656",
"j c gray34",
"k c #676767",
"l c #777777",
"z c gray50",
"x c #4AC035",
"c c #79C839",
"v c #6F3C85",
"b c #703C83",
"n c #713D87",
"m c #733E89",
"M c #734286",
"N c #754389",
"B c #79418D",
"V c #7C458D",
"C c #784190",
"Z c #7A4292",
"A c #7C4393",
"S c #7C4790",
"D c #7E4893",
"F c #824697",
"G c #854A97",
"H c #83479C",
"J c #854C9A",
"K c #85489E",
"L c #8B4BA1",
"P c #8C4CA6",
"I c #8E4DA8",
"U c #8E51A4",
"Y c #9052A7",
"T c #9450AB",
"R c #9658AC",
"E c #9452B0",
"W c #9B59B1",
"Q c #9C62B1",
"! c #A163B6",
"~ c #A26CB6",
"^ c #A26EB8",
"/ c #A36EB8",
"( c #A76DBB",
") c #A876BB",
"_ c #A978BD",
"` c #A974C0",
"' c #AE80C0",
"] c #B082C2",
"[ c #B381C5",
"{ c #B58AC5",
"} c #C5A0D4",
"| c #CAAAD6",
/* pixels */
"xxxxxxxcccxxccccxxccccxxxxxxxcxx",
"xxxxxxxxcccccccccccccxxxxxxxxxxx",
"xcccxxxxcccczzzzzzzzxxxxxxxxxxxx",
"xxcccxxxxczzzggggggzzzxcxxxxxxxx",
"xxxcccxxzzzgghhhhhhggzzzxxxcccxx",
"xxxcccczzghhhhzzzzhhhhgzzxcccxxx",
"xccccxzzghhzzzbQQLlzzhhgzzccxxxx",
"xxxcczzghhzi~)/DDDU'Lzhhgzzxxxxx",
"xxcczzghhzT'YDRRQ)SY~Wkhhgzzxxxx",
"xccczghhz(S_RQbiB!TM]U[zhhgzxxcc",
"ccczzhhzLS_RLFBKKmBLJ]S}zhhzzxcc",
"ccczghziQ_q=>1149ZAbLS/'izhgzccc",
"cczzghz+^q3r5O.=,nZtiTUYQzhgzzcc",
"cczghhj22ri044*= eH4tLS/{zhhgzcc",
"xxzghz3wy7044,,oXv8atiLR|izhgzcx",
"cxzghzq@sr04,,$VG,pn9mT~_Jzhgzcx",
"cxzghzq@sr044,,$G$pe9tW~D~zhgzxx",
"cczghz7:yri04,,$v,C4EKbRYTzhgzxc",
"cczghhf;usi044,*8e9nILbM{zhhgzcc",
"cczzgh%&:Mii044,<<P`LbQ|Mzhgzzcc",
"ccczghz#&DMii0444-1rW~Dyizhgzxxc",
"ccczzhhf=yDMii000i=iyNyrzhhzzxcc",
"cccczghhz#sdMiiiiiMMds=zhhgzxccc",
"cccczzghhz3yNssssyuNM3zhhgzzcccc",
"cxxxxzzghhz7ysDDduqs3zhhgzzxxxxc",
"ccxxxxzzghhzzjr6sizzzhhgzzxxxxcc",
"cccxxxxzzghhhhzzzzhhhhgzzcxxxccc",
"cccxxxxxzzzgghhhhhhggzzzccxxcccc",
"cxxxxcxxxczzzggggggzzzxccxxxcccc",
"xxxxxccxcccxzzzzzzzzcxxxxxxxxxxx",
"xxcccccccccccccccccxccxxxxxxxxxx",
"xxxcccxxxxcccccccccxxcxxxxxxxxxx"
};
