/* XPM */
static char *result[] = {
/* columns rows colors chars-per-pixel */
"32 32 103 2 ",
"   c #190E1F",
".  c #1E0F22",
"X  c #24152C",
"o  c #2B1631",
"O  c #2B1833",
"+  c #301938",
"@  c #321A3A",
"#  c #341D3D",
"$  c #341F40",
"%  c #391E43",
"&  c #3A1E42",
"*  c #3B1F45",
"=  c #372043",
"-  c #3F254D",
";  c #43234D",
":  c #42234E",
">  c #442450",
",  c #462552",
"<  c #462954",
"1  c #4C2858",
"2  c #4D295B",
"3  c #4F2C5B",
"4  c #4F2A5D",
"5  c #4F2E5E",
"6  c #512F61",
"7  c #552D63",
"8  c #542D64",
"9  c #562E66",
"0  c #582F68",
"q  c #583368",
"w  c #5A346B",
"e  c #5D326F",
"r  c #5E326E",
"t  c #5F3371",
"y  c #61366F",
"u  c #613872",
"i  c #633975",
"p  c #673779",
"a  c #66377A",
"s  c #68387C",
"d  c #6A397E",
"f  c #6A3D7C",
"g  c #6C3E7F",
"h  c gray28",
"j  c gray32",
"k  c #565656",
"l  c #676767",
"z  c #6F6F6F",
"x  c #777777",
"c  c gray50",
"v  c #4AC035",
"b  c #79C839",
"n  c #6F3C85",
"m  c #703C83",
"M  c #713D87",
"N  c #733E89",
"B  c #734083",
"V  c #734286",
"C  c #754389",
"Z  c #79418D",
"A  c #784190",
"S  c #7A4292",
"D  c #7C4393",
"F  c #7C4790",
"G  c #7E4893",
"H  c #824697",
"J  c #81469B",
"K  c #83479C",
"L  c #854C9A",
"P  c #85489E",
"I  c #874D9D",
"U  c #8B4BA1",
"Y  c #8C4CA6",
"T  c #8E4DA8",
"R  c #8E51A4",
"E  c #8F52A7",
"W  c #9052A7",
"Q  c #9450AB",
"!  c #935AAE",
"~  c #9658AC",
"^  c #975AAE",
"/  c #9B59B1",
"(  c #9A5CB5",
")  c #9C5EB6",
"_  c #9C62B1",
"`  c #9D64B3",
"'  c #A163B6",
"]  c #A26CB6",
"[  c #A269BB",
"{  c #A36EB8",
"}  c #A76DBB",
"|  c #A771BF",
" . c #A876BB",
".. c #A978BD",
"X. c gray53",
"o. c gray56",
"O. c #979797",
"+. c #B082C2",
"@. c #B381C5",
"#. c #B58AC5",
"$. c #BB94CA",
"%. c #C39FD4",
"&. c #C9A8D4",
/* pixels */
"v v v v v v v b b b v v b b b b v v b b b b v v v v v v v b v v ",
"v v v v v v v v b b b b b b b b b b b b b v v v v v v v v v v v ",
"v b b b v v v v b b b b c c c c c c c c v v v v v v v v v v v v ",
"v v b b b v v v v b c c c j j j j j j c c c v b v v v v v v v v ",
"v v v b b b v v c c c j j k k k k k k j j c c c v v v b b b v v ",
"v v v b b b b c c j k k k k c c c c k k k k j c c v b b b v v v ",
"v b b b b v c c j k k c c c p V V p c c c k k j c c b b v v v v ",
"v v v b b c c j k k c p V 5 g 6 = ! _ R Z c k k j c c v v v v v ",
"v v b b c c j k k c p u w g u q V f &.`  .Z z k k j c c v v v v ",
"v b b b c j k k c r u i f V p 7 1 p Q V G L Z c k k j c v v b b ",
"b b b c c k k c 7 u g u p p r 4 o , m } $.G ] H l k k c c v b b ",
"b b b c j k c r 5 C q p p 4 0 2 2 @ , } p ~ G  .Q c k j c b b b ",
"b b c c j k c q G u p p , 2 2 2 : @ t P Q Z L ..F c k j c c b b ",
"b b c j k k c u q r r 4 2 2 . . : & s | d Z R ` ] z k k j c b b ",
"v v c j k c p g q r 0 2 2 : + % & : A Y 0 ' m L +.Q c k j c b v ",
"b v c j k c V - f r 0 2 % + # O   J 8 Y 2 [ p ~ ` ] c k j c b v ",
"b v c j k c q i V 7 0 * > : & y B 3 n n s T p R `  .c k j c v v ",
"b b c j k c 1 w f p ; 0 9 a e 3 8 8 e M M d m R ` / c k j c v b ",
"b b c j k k h q C f r N M 2 e 8 e A S t P m H R  .c k k j c b b ",
"b b c c j k c X - u p U 0 s 9 : ( t 9 N U Z V { R c k j c c b b ",
"b b b c j k c & f C < U U d s K s T ) U Q V ^ R / c k j c v v b ",
"b b b c c k k h & $ E F H p D T %.Q m Z R +._ Q z k k c c v b b ",
"b b b b c j k k c p _ +.V U U p p p ~ L W L / c k k j c v b b b ",
"b b b b c c j k k c Q _ ^ ] _ F R R G I ] Q c k k j c c b b b b ",
"b v v v v c c j k k c Q ~  .+.I G G R #.Z c k k j c c v v v v b ",
"b b v v v v c c j k k z c O.Q _ _ @.c x x k k j c c v v v v b b ",
"b b b v v v v c c j k k k k X.o.O.z k k k k j c c b v v v b b b ",
"b b b v v v v v c c c j j k k k k k k j j c c c b b v v b b b b ",
"b v v v v b v v v b c c c j j j j j j c c c v b b v v v b b b b ",
"v v v v v b b v b b b v c c c c c c c c b v v v v v v v v v v v ",
"v v b b b b b b b b b b b b b b b b b v b b v v v v v v v v v v ",
"v v v b b b v v v v b b b b b b b b b v v b v v v v v v v v v v "
};
