/* XPM */
static char *result[] = {
/* columns rows colors chars-per-pixel */
"32 32 3 1 ",
"  c #4AC035",
". c #79C839",
"X c white",
/* pixels */
"       ...  ....  ....       .  ",
"        .............           ",
" ...    .........               ",
"  ...    ...   ...     .        ",
"   ...    .   .....   ..   ...  ",
"   ....      ...... . ... ...   ",
" ....     . ................    ",
"   ...   ....    ...   ....     ",
"  .....  .....    .   .....     ",
" ....... ...          ......  ..",
".............           ..... ..",
"..............    .    .........",
"...........  ..  ..   ..........",
".....   ....  . .... ...........",
"  ..   ...... .............  .. ",
".  .  ......................  . ",
".  . .................    ..    ",
".. ....................        .",
"........................      ..",
"............   ...   ....    ...",
".............   .   .....      .",
"..............      ....      ..",
"...............              ...",
"..............              ....",
".    ........ ...    ...       .",
"..    ........ ...  ...  .    ..",
"...    .   ........ ..  ..   ...",
"...       ..  ............  ....",
".    .   ..  .......   ..   ....",
"     .. ... .........           ",
"  ................. ..          ",
"   ...    .........  .          "
};
