/* XPM */
static char *_73a8a687e914cfeba594379f3cdfc28K0uKvqx6p1uRdflz[] = {
/* columns rows colors chars-per-pixel */
"32 32 176 2 ",
"   c #40814C",
".  c #3F804B",
"X  c #3A774A",
"o  c #39754A",
"O  c #39744A",
"+  c #3A774C",
"@  c #3B794D",
"#  c #3E7E50",
"$  c #3F7F51",
"%  c #408253",
"&  c #418453",
"*  c #478E50",
"=  c #478F50",
"-  c #428652",
";  c #438752",
":  c #438852",
">  c #448852",
",  c #448951",
"<  c #448952",
"1  c #E5759B",
"2  c #41844E",
"3  c #41844D",
"4  c #41834D",
"5  c #3B784A",
"6  c #3A764B",
"7  c #3C7B4E",
"8  c #418352",
"9  c #458B51",
"0  c #468C51",
"q  c #65AD58",
"w  c #438751",
"e  c #448A4F",
"r  c #41834F",
"t  c #42834F",
"y  c #3F7F50",
"u  c #3E7D50",
"i  c #3C7B4D",
"p  c #3D7C4D",
"a  c #41824B",
"s  c #3D7E50",
"d  c #448851",
"f  c #488F50",
"g  c #458A4F",
"h  c #43874F",
"j  c #478D4F",
"k  c #458B4F",
"l  c #45894F",
"z  c #3F8051",
"x  c #42854D",
"c  c #44894D",
"v  c #3F804E",
"b  c #3D7C4F",
"n  c #3E8051",
"m  c #468D51",
"M  c #428552",
"N  c #458A50",
"B  c #43884F",
"V  c #468D4F",
"C  c #468B4F",
"Z  c #448A51",
"A  c #478E4F",
"S  c #468C4F",
"D  c #418350",
"F  c #458A51",
"G  c #489050",
"H  c #499150",
"J  c #4A944F",
"K  c #3F8152",
"L  c #44884F",
"P  c #4A934F",
"I  c #4B944F",
"U  c #458B50",
"Y  c #43874E",
"T  c #458950",
"R  c #499250",
"E  c #43864F",
"W  c #41834E",
"Q  c #428750",
"!  c #438750",
"~  c #4C974F",
"^  c #4C974E",
"/  c #4C984E",
"(  c #448950",
")  c #42844F",
"_  c #448850",
"`  c #49934F",
"'  c #3E7D4F",
"]  c #3D7D4F",
"[  c #3D7D4E",
"{  c #3E7F4E",
"}  c #FFABC7",
"|  c #49924F",
" . c #42854E",
".. c #3E7E4D",
"X. c #40824E",
"o. c #49914F",
"O. c #43864E",
"+. c #468C4E",
"@. c #43874D",
"#. c #44884D",
"$. c #42844E",
"%. c #428650",
"&. c #40834D",
"*. c #448A50",
"=. c #478D4E",
"-. c #488F4D",
";. c #43884D",
":. c #3F804F",
">. c #408051",
",. c #478E4E",
"<. c #49914E",
"1. c #3E7F51",
"2. c #397449",
"3. c #478F4D",
"4. c #4A934D",
"5. c #468C4D",
"6. c #458B4D",
"7. c #4A934E",
"8. c #4B954E",
"9. c #49924E",
"0. c #3F7F4B",
"q. c #3C7A4A",
"w. c #3C7B4A",
"e. c #3D7C4B",
"r. c #478F4E",
"t. c #49934D",
"y. c #48904D",
"u. c #468D4D",
"i. c #468D4E",
"p. c #44894E",
"a. c #4A944E",
"s. c #42844D",
"d. c #40804B",
"f. c #3F7F4A",
"g. c #3E7E4A",
"h. c #48904F",
"j. c #41834C",
"k. c #40824C",
"l. c #478D50",
"z. c #AED64F",
"x. c #468B4E",
"c. c #468B4D",
"v. c white",
"b. c #489150",
"n. c #43884E",
"m. c #3C7A4E",
"M. c #3D7E4E",
"N. c #468C50",
"B. c #3A774B",
"V. c #3C7A4D",
"C. c #428551",
"Z. c #438652",
"A. c #42864E",
"S. c #3B784C",
"D. c #408252",
"F. c #41824C",
"G. c #408251",
"H. c #41844F",
"J. c #44884E",
"K. c #3D7C4C",
"L. c #3E7E4C",
"P. c #42864F",
"I. c #4B954F",
"U. c #3D7D50",
"Y. c #418450",
"T. c #3F8050",
"R. c #418250",
"E. c #478E4D",
"W. c #458B4E",
"Q. c #458C51",
"!. c #418353",
"~. c #40814E",
"^. c #41824D",
"/. c #3B794B",
"(. c #3B784B",
"). c #3E7E4E",
/* pixels */
"  . X o o O O O o + @ # $ % & & & * = - ; : > > > > > ; ; , < 1 ",
"2 3 4 X O 5 6 6 o + @ 7 $ 8 < 9 0 q q - ; : > > > w e r r t y u ",
"2 2 4 i p a 6 6 . + @ 7 s d 9 0 0 q q - ; * = f f * g h e j k l ",
", , , z x c 6 6 3 3 v b n d 9 m m m 0 M * * * * * N B g V C k C ",
"= = Z % 9 V 6 6 A A S D n F * G H * - % 9 9 9 9 9 G G , m J J * ",
"9 , , < ; = H G = A A N , F F F Z Z M K L L L 9 G G G = P J I J ",
"q , , < % 9 * G G = = U Z Z Z Z Z Z M K b Y Y T G G = m J J I I ",
"q , < % % % = P I I R 9 G G G G G = 0 E W W 2 Q ! * = , R ~ ^ / ",
"b b b b & : F 9 9 9 9 9 ( 1 1 G G m Z ! 2 2 2 2 2 ) E _ ( ` P 9 ",
"' b ] [ { r , 9 9 9 9 ( 1 } } 1 F | R ! 2 2 2 2 2 ) E _ ( q q 9 ",
" . .[ [ ..X. .x Y Y Y Y 1 } } 1 o.| R R ! 2 2 2 2 ) E _ ( q q 9 ",
" .O.+.@.#.$.q q x Y Y Y Y 1 1 Y o.H R R G %.Q Q ! w W &.4 x *.9 ",
" .=.+.@.Y -.q q ;. .:.b b  . . .>.| J = ,.+.<.P % 1.6 2.2.o o 6 ",
"Z f V Y 3.4.-.5.6.$. .:. .6 6 _ f P P 7.<.8.<.<.9.2 . 0.q.q.w.e.",
"= P 9 L r.t.y.u.5.y.i.p.i.6 6 Z H R J a.<.8.<.<.9. .s.d.d.d.f.g.",
"9 9 H 9 h.| h.h.| 7.G m G G G 0 m P | <.9.+.<.<.L  .s.s.j.j.k.. ",
"m 0 * H 9 h.a.| | G m F G G G 0 f f * l.i.i.i.z.G A x.c.s.i.6.k.",
"p.* H H 9 9 9 9 = F F F F G G 0 f * 0 Z Z G z.v.z.f f f J | H b.",
"n.* H G 9 9 9 9 , , 1 Z j.j.+ m.2  .E Z Z Z Z z.Z Z f f J P R 0 ",
"M.N.G 9 9 9 9 9 , % % @ B.B.B.V.m. .q q Z Z Z Z Z Z Z Z , q q M ",
"y C.Z.F 9 A.A.W V.V.V.@ B.6 6 6 6 S.q q Z Z Z = = Z Z , > q q M ",
"h D.Z.Z.v 7 6 6 V.V.V.@ B.6 6 6 6 S.V.u % % Z Z Z Z > > > ; M M ",
", F % % 7 7 6 6 V.V.V.V.V.6 6 6 B.F.2 , < % _ _ 2 A.] % % - < 0 ",
"F F - % 7 7 m.s.s.s.s.s.s.3 4 Z F F F , , < # 4 4 @ ] ] G.H.E  .",
"F f * z.J.Y  .$.s.s.s.6.5.5.f F F F F F , Q 7 @ S.S.+ B.K.L.   .",
"f G z.v.z.7.7.O., , = G G G G G F F F F ! P.m.@ S.S.+ B.K.1 1 . ",
"= * 0 z.J I.I.J F F = G G G G G F F F F Q # u @ S.S.+ B.1 } } 1 ",
", 9 0 = J I.I.J F F F = G G = Z F F F % 1.# u u U.U.U.# 1 } } 1 ",
"9 G = = b.J I.G F % % % % % % % % % % ; ; Y.T.R.R.R.% 9 9 1 1 m.",
"9 O.Y E.W.b.G m % Q.Q.Q.Q.9 % % !.: : : ; : F - J q q 9 0 G = F ",
"O.O.Y ~.A.A.A.7 Q.6 6 = = Q.9 !.: : : : : > F J J q q 0 G G = F ",
"O.O.^./.(.(.(.).W.6 6 = = = 9 ; : : : : : > | J J J J 0 G = F m "
};
