/* XPM */
static char *_f1e087fde4a4473e713e6faaf230920vhJTahNwkB2myOTf[] = {
/* columns rows colors chars-per-pixel */
"32 32 18 1 ",
"  c #C7C5A7",
". c #A1957A",
"X c #9A8B6E",
"o c #948465",
"O c #433119",
"+ c #85755C",
"@ c #7A6E58",
"# c #4D401F",
"$ c #916A3B",
"% c #78652B",
"& c #4D381C",
"* c #736244",
"= c #664839",
"- c #C3C1A2",
"; c #5E352D",
": c #C5A260",
"> c #595652",
", c white",
/* pixels */
" .X.XoooO .X.XooooooXO .X.XooooO",
".++++++@#.++++++++++@#.++++++++#",
"X++++++@#X++++++++++@#X++++$+++#",
".+@+@+@$#.+++@++@+@+$#.++@+@++@#",
"X$@+@$%$#X+$+@+@$@+$%#X@++@$@$@#",
"o%$$$%%%&o+%$@$@%$$%%&o@$$$%$%$&",
"&#&##&#&O&#&########&O&####&#&&&",
"*=*-.XoXo*;+-.X.XoXoo*;-:.XXXoo+",
"@*-:o+++++=-XXo+++++@@=:X+++@+@+",
"*=.o+@+@@*=.Xo++@+@*@*==++@@@@*@",
"*=Xo++@@**=Xo++@+@*@*>=#=>@*@***",
"=#o++@@*@*=o++++@@@*@*=##=#=====",
"=#++@@*@*>==+++@@@*@*>;=-:.XXXo+",
"*=#++@@*>>##=*++@***>#=X.Xo++++@",
"@*@#=>=ooo.X@=**>*>>##=+Xo+@+@@*",
"*@*=#*:.Xo+@*@=###==.X@==++@@@*@",
"**=#*-:Xo+++@***#:-.o++@*=+@@*@*",
"==#=o:Xo++@*@*@*=-.o++@**===*>*>",
"Xo+=+Xo++++@*@*>=.o++@*@>=-Xo++.",
"++*=@++@*@**@*>=#o++@*@*=-X.ooo+",
"*@**==@@@@@@*>=##=**+@**=Xo++++@",
"@*@**##=****==X+=#==@**>#o+@+@@@",
"***>>o.X=##=.X++@@=##==###=***@@",
"*>>o.Xooo#:XX+@@@*>#=X.XXoo===**",
"o:.Xo++++=X++@@@*>==:o+++++@*>>o",
"Xo++@+@@@*=@**>===#-o++@@*@**=-:",
"o++@@@@*@*>#===*Xo=X++@@*@**>#:X",
"=***+@*@*>==*.Xo++@==@***>==###=",
":====***>#*:Xo+++++@#=====*.Xo>-",
"XXoX@==##*-oo+++@@@@=#=*.Xo+++>:",
"@@++@*@*#:Xo+++@@@***#*:o++@*@=o",
"+@@@****=Xo+++@@@*@**=-o++@*@*#o"
};
