/* XPM */
static char *a3a89f66ef634a7dce592a14ef575363laEbXIpEhba1zhFB[] = {
/* columns rows colors chars-per-pixel */
"32 32 8 1 ",
"  c None",
". c gray22",
"X c gray76",
"o c #9B9B9B",
"O c gray40",
"+ c #6A5954",
"@ c #C1C0A9",
"# c white",
/* pixels */
"                                ",
"                                ",
"                                ",
"                                ",
"                                ",
"                                ",
"               ...              ",
"               .X.              ",
"              .oXo.             ",
"             .oXXXo.            ",
"             .oXXXo.            ",
"             .O...O.            ",
"             .OoOoO.            ",
"            ..oOoOo..           ",
"           .oo.....Xo.          ",
"           .O.OoXXoXX.          ",
"           .+.oOOOOoX.          ",
"           .@.OXXX..O.          ",
"            @....o.XX.          ",
"            @.oo...Xo.          ",
"             .oX.oO..           ",
"             .OO....            ",
"             .oX.               ",
"              ...               ",
"                                ",
"                                ",
"                                ",
"                                ",
"                                ",
"                                ",
"                                ",
"                                "
};
