/* XPM */
static char *result[] = {
/* columns rows colors chars-per-pixel */
"32 32 19 1 ",
"  c black",
". c #0B0B09",
"X c #343434",
"o c #3A3A3A",
"O c gray26",
"+ c gray29",
"@ c gray32",
"# c #565656",
"$ c #7B7B7B",
"% c gray50",
"& c #823C3D",
"* c #E03C28",
"= c #DA655E",
"- c #4AC035",
"; c #79C839",
": c #C6B511",
"> c #005280",
", c #F5B784",
"< c white",
/* pixels */
"-------;;;--;;;;--;;;;-------;--",
"--------;;;;;;;;;;;;;-----------",
"-;;;----;;;;%%%%%%%%------------",
"--;;;----;%%%++++++%%%-;--------",
"---;;;--%%%++######++%%%---;;;--",
"---;;;;%%+####%%%%####+%%-;;;---",
"-;;;;-%%+##%%%@+Oo%%%##+%%;;----",
"---;;%%+##%oO+ @OoO+@%##+%%-----",
"--;;%%+##%+Oo * +OoO+@%##+%%----",
"-;;;%+##%++Oo **  oO+@+%##+%--;;",
";;;%%##%o@    &***  @+Oo%##%%-;;",
";;;%+#%Oo &**& &**** +OoO%#+%;;;",
";;%%+#%oO+ &********& +Oo%#+%%;;",
";;%+##%oO  &&********& Oo%##+%;;",
"--%+#%oO &&****&*****& oO+%#+%;-",
";-%+#%oO+ &&&**&&***&&& O+%#+%;-",
";-%+#%..::  &&  &**& & .::%#+%--",
";;%+#%oO+@ =  == &  = OoO+%#+%-;",
";;%+##%O+@ , =<,= = , OoO%##+%;;",
";;%%+#%O+@O  ,<,,<,  +OoO%#+%%;;",
";;;%+#%oO+ *& ,,,, X  +Oo%#+%--;",
";;;%%##%O =**$    XXX= O%##%%-;;",
";;;;%+##% ,,  X XXX ,, %##+%-;;;",
";;;;%%+##%   >>>>>>   %##+%%;;;;",
";----%%+##%+ $&  &$ @%##+%%----;",
";;----%%+##%   +@   %##+%%----;;",
";;;----%%+####%%%%####+%%;---;;;",
";;;-----%%%++######++%%%;;--;;;;",
";----;---;%%%++++++%%%-;;---;;;;",
"-----;;-;;;-%%%%%%%%;-----------",
"--;;;;;;;;;;;;;;;;;-;;----------",
"---;;;----;;;;;;;;;--;----------"
};
