/* XPM */
static char *_6745893b97d4539b64ce71054d471acUPgSNWs1IiR31TiX[] = {
/* columns rows colors chars-per-pixel */
"32 32 251 2 ",
"   c black",
".  c #00000C",
"X  c #000004",
"o  c #0C1518",
"O  c white",
"+  c #FFFFCA",
"@  c #00050F",
"#  c #051316",
"$  c #262922",
"%  c #061817",
"&  c #F9B56E",
"*  c #041817",
"=  c #151817",
"-  c #000D04",
";  c #442228",
":  c #0C1A1A",
">  c #211D1E",
",  c #2E2126",
"<  c #001416",
"1  c #FFC3FB",
"2  c #FFA7FF",
"3  c #001715",
"4  c #141B1B",
"5  c #141D1E",
"6  c #413D2C",
"7  c #4A4430",
"8  c #AAB2B0",
"9  c #213236",
"0  c #131A1A",
"q  c #000A00",
"w  c #2A2024",
"e  c #8DFFFF",
"r  c #000605",
"t  c #373527",
"y  c #3F3C2B",
"u  c #3A3829",
"i  c #171615",
"p  c #44402E",
"a  c #8C774A",
"s  c #B39559",
"d  c #BD9C5C",
"f  c #897548",
"g  c #4A4430",
"h  c black",
"j  c #4C4831",
"k  c #504A33",
"l  c #554D34",
"z  c #BD9C5D",
"x  c #867247",
"c  c #000A12",
"v  c #00130F",
"b  c #1A1A1D",
"n  c #4F2627",
"m  c #83432B",
"M  c #8C482B",
"N  c #BD8950",
"B  c #B9995B",
"V  c #2C2E25",
"C  c #442329",
"Z  c #762D3A",
"A  c #C03F46",
"S  c #75343B",
"D  c #442128",
"F  c #241C1D",
"G  c #8D2D3A",
"H  c #000100",
"J  c #56252D",
"K  c #AF3648",
"L  c #181B1B",
"P  c #1E1E20",
"I  c #722E3B",
"U  c #111C1F",
"Y  c #762A34",
"T  c #7A2F3C",
"R  c #FF0000",
"E  c #352126",
"W  c #A53446",
"Q  c #532E26",
"!  c #662B2D",
"~  c #66272E",
"^  c #522429",
"/  c #000A12",
"(  c #7E3F2C",
")  c #7D2A34",
"_  c #00140F",
"`  c #000E0C",
"'  c #772C32",
"]  c #762933",
"[  c #000F0C",
"{  c #313227",
"}  c #564930",
"|  c #6E3D2D",
" . c #BF5544",
".. c #A84A4A",
"X. c #5A303D",
"o. c #2C2E23",
"O. c #A07F4F",
"+. c #8E5334",
"@. c #40242A",
"#. c black",
"$. c #3C565E",
"%. c #697D7C",
"&. c #B58C5A",
"*. c #795C3A",
"=. c #111D19",
"-. c #59242B",
";. c #424648",
":. c #3D4243",
">. c #3A4243",
",. c #5F6F75",
"<. c #829098",
"1. c #44636E",
"2. c #504933",
"3. c #5A4F35",
"4. c #000200",
"5. c #41242A",
"6. c #882F3B",
"7. c #412A35",
"8. c #2F2C2A",
"9. c #B67443",
"0. c #97959A",
"q. c #BFBABF",
"w. c #C1BFC5",
"e. c #8FA4AE",
"r. c #72797D",
"t. c #131514",
"y. c black",
"u. c #2E2227",
"i. c #653242",
"p. c #7E394D",
"a. c #7E394E",
"s. c #4A2934",
"d. c #000F0D",
"f. c #513C29",
"g. c #525557",
"h. c #88878B",
"j. c #919094",
"k. c #49555A",
"l. c #0C1C1E",
"z. c #161B1C",
"x. c #633141",
"c. c #98405A",
"v. c #6A3344",
"b. c #181B1C",
"n. c #070E0E",
"m. c #050C0C",
"M. c #000302",
"N. c #E6BC6D",
"B. c #F4C772",
"V. c #DF4F46",
"C. c #E34D43",
"Z. c #EA8C5B",
"A. c #F2C772",
"S. c #D69661",
"D. c #BC384E",
"F. c #DC5E57",
"G. c #E5785E",
"H. c #E86258",
"J. c #F0975F",
"K. c #F0B066",
"L. c #E26859",
"P. c #CB3A4F",
"I. c #B54152",
"U. c #AB735A",
"Y. c #B6935B",
"T. c #B68F56",
"R. c #AF6D55",
"E. c #BC4051",
"W. c #C83A4E",
"Q. c #CE3A4E",
"!. c #B1384C",
"~. c #463037",
"^. c #3F413E",
"/. c #453037",
"(. c #AE384D",
"). c #BD3B51",
"_. c #AF394D",
"`. c #AB5164",
"'. c #79424F",
"]. c #86313C",
"[. c #9F5165",
"{. c #AD394E",
"}. c #C8394C",
"|. c #803343",
" X c #7C394C",
".X c #70374B",
"XX c #AA7889",
"oX c #D2A6B4",
"OX c #BD677B",
"+X c #AA788A",
"@X c #B63445",
"#X c #CC3A4F",
"$X c #AB384A",
"%X c #553646",
"&X c #733749",
"*X c #8F4C61",
"=X c #C07F90",
"-X c #D25164",
";X c #733849",
":X c #C9483F",
">X c #9E3444",
",X c #853849",
"<X c #573746",
"1X c #65394B",
"2X c #BD3F4B",
"3X c #983A4A",
"4X c #803A4E",
"5X c #9A3A4F",
"6X c #98384B",
"7X c #BD394D",
"8X c #C83546",
"9X c #C83A4A",
"0X c #9F3C52",
"qX c #6A3A4E",
"wX c #3C3543",
"eX c #6F3C4D",
"rX c #C75347",
"tX c #C6434B",
"yX c #AD384C",
"uX c #A13849",
"iX c #AD394B",
"pX c #C53A4E",
"aX c #C53A50",
"sX c #6F3A4E",
"dX c #3C3643",
"fX c #C8384B",
"gX c #42323F",
"hX c #513848",
"jX c #943F51",
"kX c #C13C4F",
"lX c #C93A4F",
"zX c #DD384C",
"xX c #C03A50",
"cX c #943C52",
"vX c #B17947",
"bX c #B06C3E",
"nX c #81394D",
"mX c #5A394A",
"MX c #503748",
"NX c #7C3A4D",
"BX c #9A3C52",
"VX c #B45057",
"CX c #B8374A",
"ZX c #993A4F",
"AX c #3F2E38",
"SX c #36323E",
"DX c #573C46",
"FX c #CC8A59",
"GX c #8B303E",
"HX c #6D3444",
"JX c #EFEFEF",
/* pixels */
"                                                                ",
"                                                                ",
"                                                                ",
"                                                                ",
"                                                                ",
"                        .   t y u i   X                         ",
"                      o O p a s d f g + @                       ",
"                      # h j k l z N.x c $                       ",
"                    % v b n m M N B.B V & *                     ",
"                  =   C Z A V.C.Z.A.S.S D   =                   ",
"                - ; F G D.F.G.H.J.K.L.D.G F ; -                 ",
"                : H J K P.I.U.Y.T.R.E.P.K J H :                 ",
"              > L P I W.Q.!.~.^.^./.(.Q.W.I P L >               ",
"            , U Y T R )._.`.'.].].'.[.{.).R T Y U ,             ",
"          < 1 E W }.|. X.XXXoXOXOXoX+X.X X|.}.W E 2 3           ",
"        4   Q ! @X#X$X%X&X*X=X-X-X=X*X;X%X$X#X@X~ ^   4         ",
"        4 / ( :X>X,X<X1X2X3X4X5X5X4X6X7X1X<X,X>X8X) _ 4         ",
"        5 ` ' 9X0XqXwXeXrXtXyXuXuXiXpXaXsXdXqX0XfX] [ 5         ",
"      6 { } |  ...X.gXhXjXkXlXzXzXlXxXcXhXgXX... .| } { 6       ",
"      7 o.O.vXbX+.@.nXmXMXNXBXVXVXBXNXMXmXnX@.+.bXvXO.o.7       ",
"    8 #.$.%.&.*.=.-.CXZXAXSXDXFXFXDXSXAXZXCX-.=.*.&.%.$.#.8     ",
";.:.>.,.<.1.2.3.4.5.6.GXHX7.8.9.9.8.7.HXGX6.5.4.3.2.1.<.,.>.:.;.",
"0.q.w.e.r.t.  y.  u.i.p.a.s.d.f.f.d.s.a.p.i.u.  y.  t.r.e.w.q.0.",
"g.h.j.k.l.9   0 q z.x.c.v.b.w     w b.v.c.x.z.q 0   9 l.k.j.h.g.",
"e n.m.M.r                                             r M.m.n.e ",
"                                                                ",
"                                                                ",
"                                                                ",
"                                                                ",
"                                                                ",
"                                                                ",
"                                                                "
};
