/* XPM */
static char *result[] = {
/* columns rows colors chars-per-pixel */
"32 32 11 1 ",
"  c black",
". c #343434",
"X c #7B7B7B",
"o c #823C3D",
"O c #E03C28",
"+ c #DA655E",
"@ c #4AC035",
"# c #79C839",
"$ c #005280",
"% c #F5B784",
"& c white",
/* pixels */
"@@@@@@@###@@####@@####@@@@@@@#@@",
"@@@@@@@@#############@@@@@@@@@@@",
"@###@@@@#########@@@@@@@@@@@@@@@",
"@@###@@@@###@@@###@@@@@#@@@@@@@@",
"@@@###@@@@#@@@#####@@@##@@@###@@",
"@@@####@@@@@@######@#@###@###@@@",
"@####@@@@@#@################@@@@",
"@@@###@@@####@@@@ ##@@@####@@@@@",
"@@#####@@#####@@ O @@@#####@@@@@",
"@#######@###@@  OO @@@######@@##",
"############  OOOo    @@#####@##",
"########### OOOOo oOOo #########",
"########## oOOOOOOOOo ##########",
"#####@@@# oOOOOOOOOoo  #########",
"@@##@@@## oOOOOOoOOOOoo ###@@##@",
"#@@#@@## oooOOOooOOooo #####@@#@",
"#@@#@#### o oOOo  oo  @@@@##@@@@",
"##@####### +  o ++  + #@@@@@@@@#",
"########## % + +%&+ % ##@@@@@@##",
"###########  %&%%&%  ####@@@@###",
"##########  . %%%% oO ###@@@@@@#",
"######### +...    XOO+ #@@@@@@##",
"######### %% ... .  %% @@@@@@###",
"##########   $$$$$$   @@@@@@####",
"#@@@@####### Xo  oX @###@@@@@@@#",
"##@@@@######   ##   ###@@#@@@@##",
"###@@@@#@@@########@##@@##@@@###",
"###@@@@@@@##@@############@@####",
"#@@@@#@@@##@@#######@@@##@@@####",
"@@@@@##@###@#########@@@@@@@@@@@",
"@@#################@##@@@@@@@@@@",
"@@@###@@@@#########@@#@@@@@@@@@@"
};
