/* XPM */
static char *result[] = {
/* columns rows colors chars-per-pixel */
"32 32 17 1 ",
"  c #28232F",
". c #382E28",
"X c #661205",
"o c #584B41",
"O c #78695D",
"+ c #8B230A",
"@ c #8C2A38",
"# c #884920",
"$ c #B8713B",
"% c #BB3F4A",
"& c #4AC035",
"* c #79C839",
"= c #F7A966",
"- c #7B8588",
"; c #A3AEB2",
": c #DDE3E4",
"> c #FFF4ED",
/* pixels */
"&&&&&&&***&&****&&****&&&&&&&*&&",
"&&&&&&&&******   *  *&&&&&&&&&&&",
"&***&&&&***** ==$ ## &&&&&&&&&&&",
"&&***&&&&*** =@@=$#$ &&*&&&&&&&&",
"&&&***&&&&*& =%%%=#$$ **&&&***&&",
"&&&****&&&&& $%@@===$ ***&***&&&",
"&****&&&&&*&* $@=====$ *****&&&&",
"&&&***&&&****& $$=$X$=   **&&&&&",
"&&*****&&***** $==>+===%% *&&&&&",
"&*******&***&   =======@% **&&**",
"************ ::;#$====$  ****&**",
"**********  =:::$##  > *********",
"********* ==$::::$$;- **********",
"*****&&& =$  ;;::::;;- *********",
"&&**&&& == * ;:::::-;; ****&&**&",
"*&&*&& $== * :::::; ## *****&&*&",
"*&&*&* ====  :::::;  ##  &**&&&&",
"**&*** == $ ;::::::-  #$$ &&&&&*",
"******* =   oO;::::; * ##$ &&&**",
"******** * oOOOOOoo..  $## &&***",
"********** OOOOOOoooo.*   &&&&&*",
"********* oOOOOOoooooo *&&&&&&**",
"********* OOOOoo .ooooo &&&&&***",
"********* oOOOo & ...oo &&&&****",
"*&&&&*** oooo  **&  oo. &&&&&&&*",
"**&&&&** $$  *&***&& $ &&*&&&&**",
"***&&&  == ********& $  **&&&***",
"***&& $$== *&&***** ##$$  &&****",
"*&&& =$==$ &&****** #$$$$$ &****",
"&&&&&**&***&*********&&&&&&&&&&&",
"&&*****************&**&&&&&&&&&&",
"&&&***&&&&*********&&*&&&&&&&&&&"
};
