/* XPM */
static char *a8f4aa946a9742059b41094d5bb14282xvskqOkRMff8wJrc[] = {
/* columns rows colors chars-per-pixel */
"64 64 31 1 ",
"  c #3A764B",
". c #3D7B4D",
"X c #3E7E50",
"o c #3F804D",
"O c #3F8051",
"+ c #42844E",
"@ c #44894B",
"# c #43884D",
"$ c #44884F",
"% c #478F4D",
"& c #478E4F",
"* c #488F4E",
"= c #4A934F",
"- c #4B954E",
"; c #4C964F",
": c #4C984E",
"> c #408253",
", c #428552",
"< c #438852",
"1 c #458B51",
"2 c #448852",
"3 c #468C51",
"4 c #478F50",
"5 c #488F50",
"6 c #489050",
"7 c #499250",
"8 c #65AD58",
"9 c #AED64F",
"0 c #E5759B",
"q c #FFABC7",
"w c white",
/* pixels */
"......           ..o,,,,,.....,>,,>>,,>OOO>,,<1111>>>>>>>>>>>>>>",
"......        .....o>,,,,.....>>,,>>,,OOOOO,1111111>>>>>>>>>>>>>",
">......    ........o,11,......>1631>,3$+OOO1311111131>>>11>11>>>",
">>>>,,,.  ........>+8811......1*551113$88O+,111111553111113111>>",
">>>,13,o.o...+++,,>,881,....o.03331361+88X>,,16665666663113111>>",
">>>3883,ooo  ,,13111<11>.   .  13363363+++,11665=6=66668811111>>",
">>>3883,,,,  ,11<0033,,,...oo  13,3333,,,,,6--66633=66688>>11,>>",
">>>333333,,,,,,,0qq033,,..ooo+336638833,,,6----  31333388,,33,,>",
">>><333333,,,>,,0qq033,,..OOoo1==638833,,,6---6  +,333311,3333,>",
">>><0<3633111,>,,0033311+.OOoo3==63,33,,,,36--=,+++,3331<,3333,>",
">>><,<6666333111,>>>11111+.Oo,3333>>>>>>>>>111>00#+1<++++>9666,>",
">>><,<6666388111111  111111>>>1331>,<111>,,,o.0qq0+<+....9w9--3>",
">>><<<<661388111111  1111111>>1111,<1  55<,,oo0qq0<3$o....9--66>",
">>>><<11111<<1111133333331111>>11>,<1  555<,...00O31$+....66666>",
">>>O.++++11<<1111333333333166>>>9>,<115555<>...>,,155+....66666>",
">>O........ .>1113333333336663>9w9,,1136==3,...133566$.  .36663>",
">>O.. .....     .1333333316663>>9113,166=631..+333;66&.  .+3331>",
">X..  9 ...      .+++,1<>16633,<11111>,33111,O3333666+.  .+311,>",
"XXX..9w9+++o        .XX>,,,33,,<11111,,1101,,,,&33,33o.   ++<<,>",
"XXXX>>9&&++++  .    ..X>11388,,<111,$+++XXXX>>>+>,,88,o   ++11,>",
"XXX>>+====+++..+  o ..X113388,,33553$+$&$$XO>>++>,,88,,...++111>",
">XX>>+====<<1O+$  ++o.O113333,333331#$&$$$$&>>>>>,,,,,,X..+,111>",
">>>,,1====&&1>1&  &&&>O13663,>111116613--33333>>>,,,,,>>OO,1111>",
"...,,,6===1111,3663&&1111111,O$$$16663=---33331>>>>>>>>>>,11111X",
"....,,,6388111>1366333111111,O.++16633----3==311>>1111>>,<1111,X",
"....,,,,18811>>>3=--636666633++++,,3316;;:;;;-653111111>,<<111,X",
"....,,,>......,<1111111006631,+++++++11==1;;;-----111,+.o++<<<OX",
">>,,,,,........+1111110qq01=6,+++++++118816-  ;---51,++..o+88>OX",
">>>  11+++++...+++++++0qq0==66,++++++$18810-  ----=1,+.9.. 88..O",
">>1  13&$+++&+$+88+++++00+=6666,,,+,++++1111666==-=3,.9w9    ...",
">>111133$++&&++=88#+o..+++>=-3&&==>X       ..+&366311X.9++.     ",
">>1111333315&+&=*&$++o+  15--==-===+o......+++&&336665666$@.    ",
">,,31101133=1$&==&$=&$&  166--=-===+++++...++++&366666---=&@.   ",
",,,,,>>,111161======6366633====&==$++++++o+++++$366666---=61++..",
",,,,++o++#33361=-==63156635533&&&95&$$+&$+++++$1166666--6331551O",
",,,++o.  $$3661111311116635331169w9555==6=+++111,36688--33366611",
",,,++o.  .#36611111101++ .+++111191155-=63,331>>>>11883  3166311",
",,,++o.....36111111>>.   ..+8811111111188,,,<<<>>>>,333  ><33111",
">,,,o.....X,,11+++....     .8811133111188,,<1111133166661>,31111",
",,111,.++++>,,o.  ....     ..X>>111111,,,,336531333366666>,11111",
",111113+++11>>..  .....    ++11>11++.>>,13336655333316&&+...+++O",
",11111311111,>...++++++++1111111X++...>+++$$6655  331++++.....0.",
"11111131111539$++++++$&&5111111,....  ..++++$==6  31<++++.......",
"1111188111569w9==+113666661111,+....  .00oo+$$$+oO>1#++++++++...",
"1111188>113339----113666661111,XX...  0qq0 ..o++..13&&+++++88++>",
"111111,>>>1133----11136631111>XXXXXXXX0qq0   o+...3==*++++18811,",
"<<1111,>,316336--61>>>>>>>>>>,,,X>>>>1100.   o++++=====+&661311,",
"O<1111,,111++&$663>33331>>><<<,<1,-8813631>.+++++<9====6666663,,",
"..++++>>11+++++++.3  &331><<<<<11=-883663133333<<9w9=6<666=6333,",
".......>,1+++.....$  3331,<<<<<1==---3631363333$++9+,,>>1333333,",
".. . ..++,oo. ....$&&&331,<<330,3---6,11336333$$+>XXX>>>>,,363,>",
"X.....++++O++o....o$&&&31  3333666==>>,1331133$+XXX+  ,1&,&333,>",
">>XXXX++$$,1++oo....+$$3,  111166661111<111116&>XX$&  =&&&&333>>",
">>>X>++$$+,8811++......>>>>++++166111111<111663$X>&*66==*&,33>>,",
">>>,+0+$$,188111.00  .*63,>+&&&++o+,33331,>13331,16=666=&&,,>>11",
">>>333111111111+0qq0 &=663,+&&&&o.+$3333&+.88+++,,6==6631  >1333",
">>133361111333>.0qq0 &&663,1$$++ .+$33331>.88++..,,6=63>0  11333",
">>1133311>1111,..00...&63,>>13$....+,911,X.......o>,,,,>>>>13133",
">>11==633,3111,,o.....X11>>,33$+...&9w9$1<<<,>.++++++......$&$11",
">>1  *=663,311133+...o$$11,883$$+.&&&9$&31<<<,1+++++++++++$$*=&3",
">>O  *&663,,  3333,>>>$&31,8833$+.&$$&&&31111,11+++$$$++++&&&&13",
">>.o&&$$&+..  +331,>>>>&3>,13331,X+$$+$331311111#+$$$$$+++$&&,11",
">>..+++++....+++11,,,,,,,>>,111,X..++++@+++++o.$$+@++++...+@+o++",
">>...+++..... +++,,,,,,  >>>>>>>X....    .........   @+++o..+++."
};
