/* XPM */
static char *d1434364bf6342c3d18b7a27e76edad8cZo5H6crayLgAszD[] = {
/* columns rows colors chars-per-pixel */
"64 64 76 1 ",
"  c #3D405B",
". c #41445F",
"X c #444762",
"o c #464A64",
"O c #494C66",
"+ c #4B4E69",
"@ c #4D516B",
"# c #51546E",
"$ c #4F5770",
"% c #535671",
"& c #565A73",
"* c #595D76",
"= c #5B5F79",
"- c #5E627B",
"; c #61647D",
": c #62687F",
"> c #5F6A80",
", c #636780",
"< c #656A82",
"1 c #696D85",
"2 c #6B6F88",
"3 c #677085",
"4 c #6B7187",
"5 c #6D738A",
"6 c #6E788C",
"7 c #72768C",
"8 c #73798E",
"9 c #717790",
"0 c #767C92",
"q c #797E93",
"w c #768094",
"e c #7C8296",
"r c #7E8599",
"t c #7F899B",
"y c #81869A",
"u c #838A9D",
"i c #858D9F",
"p c #848DA0",
"a c #868DA1",
"s c #858EA0",
"d c #888DA0",
"f c #888FA3",
"g c #8791A2",
"h c #8792A3",
"j c #8890A1",
"k c #8993A2",
"l c #8993A4",
"z c #8A92A5",
"x c #8B94A4",
"c c #8C95A7",
"v c #8E96A6",
"b c #8B98A7",
"n c #8D99A7",
"m c #8E96A9",
"M c #8E99A9",
"N c #8E9BA9",
"B c #9197A9",
"V c #909AA8",
"C c #929BAA",
"Z c #929CAB",
"A c #929FAF",
"S c #959EAF",
"D c #939FB0",
"F c #96A0AF",
"G c #96A1B0",
"H c #97A2B1",
"J c #95A4B2",
"K c #98A3B2",
"L c #99A5B3",
"P c #9AA7B5",
"I c #9AA8B5",
"U c #9BA8B6",
"Y c #9DAAB7",
"T c #9DABB8",
"R c #9DACB8",
"E c #A0AFBB",
/* pixels */
"&&&@%&*&&&**********&&&&&%#####&*****************&##&&**=--%%#&&",
"&&#==;;***------;;;---****&&**&*-;;;;;;;;;;;;;;;;--:2<22;<<,:;=&",
"*#&;45q777777777777777777777777777777777778qqqqqq00qeqqyqqq87<-&",
"=#;445q7777eeeeyyyiisidiyiggjgssiiiiyuyreeeeetussyqeyyeeyyyqq0<=",
"@=788q7770yyyeydjjxxvvxnvxxxxjSSFVVVMvvvvvxvxxxxuuiyqyeeeeeeq85-",
"#=7eeq8wuueiiisdjjvvVAAALLLLLLLLLFFFFFmvvvvvxxxxljuyyyyeeeeq752-",
"*-7eyewiiijsddusglrggxYYYYYIIYYYYYYPPPPZZVMMMxjgsiee000788074-;*",
"=:eeeyijSSHIAHHPLKKPTTTTRRRRRRRRRYYPPPPPPPPLLLKHZZMVdiiy777777%#",
"-<eyeuiSSHIIIDHPPPPPTTRRRRRRRRRRRRRRIIIIIIPLLLKHHHMVjddq7777;;%@",
"-<eqeisSHLIIIIDPxPPTRRRRRRRRRRRRJJRRIIIIPIPLLLKHHHFFBBye87<<-;%#",
"-<8wyuuHHLIIIIIA54wIRRRRRRRRRRRRIRHHAAAAVAAAAAVASFFBBi075;-;**#@",
"-<8eyuuHHLIIPPIIHet1wertugRRRRRRRRRRLLLLLLLLHHHHHFFsye71<;-*-;==",
"-<44rruHLLPIIIIIIHMHtRRRRRu8RRRRRYYLLLLLLLLLHHHSSvuuy72<-;-&;q<=",
"-<8e55tHLLLPPPPPPPSxSrsRTTP6PRYYYYYLLLLLLLLHHHlviuye:<;----=77=@",
"1:7qe44HLLLLPPPPPPSSllvsPKKuYYYYYLLLLLLLLHHHiiieeq4&---*&--<27-#",
"1:7etttrrPPPPPPHHLASSSSlVVKLsALLLLLLLLLLHBBiiee0q5:---*&=%;;55-@",
"<;7erutPrrHPPPPPPLSSVVVVllVVlVmVVVVVVVBBsiirqqq77;--*==%;,<,55=@",
"<-7eruuYTt00PPMHLSVVVVVVVVmVsuVVVVVVVBsssueeqq27:--,--%-%<<<52=@",
"<-0ryuuHHHT60sxVAmmmmVVVVmmlmmrreeiuyyrreq--*&&&&-9qq,4-=14<55*@",
",50ryusHSSST4--<1yuuuuuyuussssssiiyyrrr0<;4<<-&-=0qqrs9-224555*@",
",50yytsSmmvmMs688:,008eqqqeeyyyyrreee21<<-<;---2,qqyss52222555*@",
";50yetsmmvvlllsseqq,08887557yeeqqeee222;-<-==1q8-yyssq5<722755*@",
";50yrusmmvlllflsdssu4<<:;;;;;;----,,-,,&&-27787<<<use4<5722755@@",
";5eyrusmmllllddfdfddssr,--&&%%%--**%*=-=4e000si212r4,<57571077@*",
";5euuusVmlllldffffflddlldr9655,<-==&*11wiuyrssi--25-<555772q07@+",
"*5euuusVVmllldfddffffddllllre45554=*%5uiiummll5;-6>,5557888q88@@",
"*;eyussVmmmmvlllldffffdldlll25,,*&O&-uuuHSSSt8;--5-8885e000e08#@",
";-5yussVmmmmmvllllffffdllls07;-&%O#48uLHKKSyr5;,656wwwtrr00e08#@",
";125yusVmmmmmvvvmmlllllsur05,-&--456usPLLKm082214uw0wuttteer07#@",
";105uuummmmmmmmmmvmmvlsue00;&@--558usPPPLKue8641uMxwuuuuteere7;@",
";1757uuSSVVMmmmmmmMMme8<&**#o<<5568sPPPPLr00564rMMbRTYYIKHeuq7;@",
";278<66AAAmMmmmmmmlle<&&%%+@<<558uPPPPPPx00q66rxMbRRRTTIKHeuq7;+",
";2qqrr6eASmmmmmmvrr77-%@+*-<4456PPPPPPPuew8047xMxRRRRTYPKHeuq7;+",
";7eeerrqKSMMMMlsrq77--@+@1<<55sPPPPPPPleew96qjMgEERRRYYYKHSuq7;+",
";0eeeeeerKVVVseeq4<&@@+&<<4ttiPPPPPPLx400r6qiMgREEEPIYYYKSSu07;@",
";0eerrrVyysssuq6<,#@#o-244tgLLPPPPPLge3084q9xMRREEEAPYYLHSSu07;@",
"#0qeeyydsssurq7;;#@@+*444igYPPPPPPLjj58046qjMRRRRERH0tYLSSSS85;@",
"#0eeyuudssqq5,;;#%@+&244ygYYPPPPPLlj64555qyMRRRRRRFH6ugSSSSS77;@",
"#2qqyyruq0-;--**@O+*0etygYYYYPPPLZj54852qyjRRRRRRPHY-wxSSSSV72;@",
"-5eerrre5;---**@+%;00tugYYYYYPPLLx878519ijYRRRRRRIHY%0xSSSSV72;@",
"-5qerre---****@+@;70eugYYYYYYPLLsu82215idPRRRRRRYIHY&ASSjSSS7<;@",
"-50qqq,---***@+&&-0eruPYYYYYYLVi082<-1uuPYRRRRRRIHYY&SSS8SSy7<;@",
"%-;<<<=---**@O--7-7euuPPYYYYKMle85=-29ePPTRRRRRYIHYY,SSS8SSy7<;@",
"#=;*&**---*%O@5ee<-ryHKKIYYLKme85<@46uuPPTTRRRRYHYYK1SSSsSyq7<;@",
"&*&*&**---%@$6eeeuu;VAHHKKSVVi555%+6euHPTTTTRRYYHYKS4SSSVSyq7<;@",
"@**&&&&**&#&-eeyuuu4VVVAVVjli75<%*,eyHHYTTTTTRYYHYKS5SSSSSie7<;@",
"@**&&&&&#@o:eeeuisVV1VVBBdllq5&&@-8lAHPTTTTTTYYYHKKS6SSSSire<<;@",
"+&*&&&&%O+>tttsssslVV<<BBllq55&#&18KPPYTTTTTYYYYVKSS8SSSSiee<<#X",
"o#*&*&&&@,tttssddlmlVv,,llq75&@&,8qPPPTTTTTTYYIIVKSS0SSSuuee<<#.",
"O&****#o,5ttssddlllvmvy<ll75<#*&5quPPYTTTTTYYYKAKSSSeSSuuuq8<<#.",
"o%***#+-1ttsggdllllsssd,,07&&%%0qqxPYTTTTTTYYYLAKSSSuSSuueq2<<#.",
"o%**@+-<5tdfgjlllldldsl0--=&@*@<4qLPITTTTTYYYLFKKSSSsSruueq2<<#@",
"o%*&++,3tuddddllddslsl0007;@&%-58jxMIYTTYYYYIKAKSSSS8rrueeq522o#",
"o#*%O235ssddllddddslll077-;@---58yjVxYYYYYIIKKSSSrrr8rrueeq522o#",
"o#*O#<4sssdfldddddsvvr77-<<@;--58ygMjxxgtttLSAArrrrrwrueeeq22&o%",
"o&%O-4tgfllllldddjsqq072255*---28yunxxxxxxxllyrrrrrrwuue0078;;%%",
"O%#*24tsdlllldddlsq00822711:---:1eunjxxxxxxlxxvxxsuuyguuq757<<#&",
"o#&*<4tudllllldxxx09772-21<5;--;;euujjxxsiiiiidiiiiiye0800<512&&",
"o#2-::0qssssss::5550085-;<7177<770eereqqqqqiiidiiiiy00qq005222+%",
"  ;#::000sssu<<45560542&,27752:<700ee0wwqq88888reeqqqeq2771222@%",
"+o&*#:8000:<<<<4527245*%;225<2;;;:28875588888qqq777qqq2222;22=++",
"+@o-27<<<:<:222277587=*&5225<21;;;,77777777777777<<777;1;;;2-=+O",
"%%@+&&&***&**&&&&&&&*Xo++*&-***OO@@@@@@##%%&&&***&*:,,;*=*-**%Oo",
"%%%%&%****##-%######@ooOo%#;-===%%%%-==*****&%#o#&*--;#&&*%%#%XX"
};
