/* XPM */
static char *_c1eb65f1ed74ea8e280e1af3c9ddf0cVdOKE70WzLS7pjNm[] = {
/* columns rows colors chars-per-pixel */
"32 32 6 1 ",
"  c #5B525C",
". c #7C707C",
"X c #4AC035",
"o c #79C839",
"O c #9A8F99",
"+ c #B4AEB1",
/* pixels */
".O++++++++OOOOO++++OOO...    ...",
".O++++++++OOOO.O+++OOO.      ...",
".+++++++++OOOO..+++O+        ...",
"O+++++++++OOOO..+++O+OO..    ...",
"O+++++++++OOOO..+++++OO..    ...",
"O+++++++++OOOO..+++++.O..    ...",
"O+++++++++O++O..++.+O.O..    ...",
"O+++++++++OOOO..++.+O.O..     ..",
"O+++++++++O++O.O++.OO....     ..",
"O++++++++++++O.O++OOOO...     ..",
"O+O++++++++++O.O++OOOO...     ..",
"O+O++++++++++OOO++OOO..         ",
".+O++++++++++OOOO..            o",
".OO+++++++++..                 o",
".OO++++++++++OO..              X",
".OO++++++++++++++OO..          X",
".OO++++++++++++++++OOO..        ",
".OO++++++++++++++++OO.....   ...",
".OO++++++++++++++++OO.....   ...",
".OO++++++++++++++++OO.....   ...",
".OO++++++++++++++++OO.....   ...",
".OO++++++++++++++++OO.O...   ...",
"   ..OO++++++++++++OO.OO..   ...",
"o       ...OO++++++OOOOO..   ...",
"o             ..O++OOOOO..  ....",
"o               ..OOOOOO..  ....",
"o        ...OOO++++OOO.O..  ....",
"    ..OO++O++OO++++OOO....   ...",
"..++++++++O++OO++++OOO....  ....",
".O++++++++O++OO++++OOO....   ...",
".O++++++++O++OO++++OOO....  ....",
".O++++++++OOOOO++++OOO...    ..."
};
