/* XPM */
static char *_6eb20869b0a4a59e00ad56b2645d75d6kYPTTILOpZaTnaz[] = {
/* columns rows colors chars-per-pixel */
"32 32 7 1 ",
"  c #262B44",
". c #3A4466",
"X c #3E2731",
"o c #5A6988",
"O c #733E39",
"+ c #8B9BB4",
"@ c white",
/* pixels */
"   .     .   .        . XXXXX   ",
"  .     .o  .        . X XXX    ",
" .      o  .        .   X X     ",
"     .  O     .    .   XX       ",
"    .  .     .    .   X         ",
"   .  O     .    .   XX         ",
"  .   .    .        X          X",
"          .        X          XX",
"         .        OX  ..     XX ",
"        o        XX         X   ",
"      .o        OX  o.          ",
"     oo         X         X     ",
"    .+       XXX   o    OX      ",
"   .+      XX    o.   XOX       ",
"   .     XOX     .X  XXX        ",
"  .   .  O      .oX XX      .   ",
"     o  X       oX         +    ",
"    o. X       +oX        +     ",
"   o.         +o         .      ",
"   .         oo  X            . ",
"  .         oo               .  ",
"  .        .                .   ",
" .        .                . .  ",
"                          . .   ",
"                   X     o.     ",
"            .         o+o       ",
"          oo      X  o.       X.",
"         o       X   .      X . ",
"        o      X     .    O X.  ",
"              X     .    XXX.   ",
"      .  o   XOX   . .  XOXX    ",
"    o . o   XXXX  . .  XXXX     "
};
