/* XPM */
static char *result[] = {
/* columns rows colors chars-per-pixel */
"32 32 5 1 ",
"  c #E23F36",
". c #C62A37",
"X c #A4222F",
"o c #8C1D2A",
"O c #791A26",
/* pixels */
"..XX.XXOX.X.o.X.X..XXXXO. .X.XX ",
" ..XXOXOX..ooX..XX..X.OX......X ",
" .XXOXOX..X.Xo.Xo.X..XOXX. X.X .",
".X.XOX...XO .o.X  .X..XOXX .XX. ",
".XXXXOX..OX .OXoX  o...XOX..XXX.",
".XoXoO..XO.. .OX.. o.X.XO.X.XX.X",
"XXXooXOoXOX ..X.. oX..X.XX.X.XX.",
"XOooXOX XoO..X.. .X..X.Oo.ooX.XX",
"OXOooX  .XXo...X.XX.XOOX  Xo...X",
"..XOO..  .Xo.X..Xo.XOX... o.. XX",
". ..oX . ..XX..XoXXoo..X .o.   .",
"   XOXX   XXXXX.oXoX.X...XOoX. .",
". ..OX. .X.X.XXoXXXoX...XOXOXO..",
" ..X.OX.X.X . X.XXoXXX.XoOX  oX.",
"X.X.XOXXXXo   .XXXXoX.Xooo. .oOX",
"XXXXXoX.X.o. ..XXoXXXoOXXoX  .oo",
"XoXooXX ..Xo. ..XooXoOX. X . oOX",
"XXoX.oOX ..XX..XoXooOX.  ..X.XOo",
"XXo.  .OX..Xo.XoXXoOoX .  X. .XO",
"oXoX   oX.X.XoXX.XXOo.XX. XX...X",
"oOoX. ..oX.XXoXXXXoOooX.X.X.X.XX",
"XoXoX. .XoXooXoX.XXoOXXX.XXoXX.o",
"oXXX.....Xo .oooXXoXoOXXXXoOo.XX",
"OXoXX.X.Xo.  XOoo.XooOoXXXXOXXXo",
"oOX.XX.XXO   .Oo. .ooo.X.XX.oXoX",
"Xo  .XXX.OX ..XO   XoXX.X.XXOXOX",
"XO .X.X.OX... .  ...XX.Xo..oOoX.",
"OX. XX..OXX..X... ..XX.oXo.OXX..",
"X.X..o..XOX.X..X...XX..o .Oo.X..",
"...Xo..X.oOXX.XX...XXXo...oX..X.",
"X.XXXo.oX.oOXXX..X.XXX..X ..XoX.",
".XXXoXoXoXooOX....XXX.X.oX XoX.."
};
