/* XPM */
static char *result[] = {
/* columns rows colors chars-per-pixel */
"32 32 6 1 ",
"  c #747474",
". c gray36",
"X c #4F4B4F",
"o c #3A3B48",
"O c #32333D",
"+ c #1B2632",
/* pixels */
"oOoX.X  .X..XX.  .. .XXX...XXXoO",
"OOoXX.   ..X.X. .X. .X.X.X.XoXoO",
"+OooXX   . ..X  X.. .X.XXX.XoXoo",
"+OooXX. .. . .  X . .XX.XX Xoooo",
"+OXoX.. .  .    .   ..X.X. XoooO",
"+oXoX.  .    .  .   . ..X. .oOoO",
"OoXXX.     . .  ..    . X...XOoO",
"OoXoX. .       . .      X...XoXO",
"OooOXX .       . .  .   X.X.XXXo",
"OoOOXX.. .   .   .  .   ..X.XXoo",
"OoOoX... .   .   X     ...XXXXoo",
"OOOXX.X..X  ..  .X .   ...XXXXoo",
"OOooXXX.X.  . . .X.X   ...XXoXOo",
"O+oOXXo.X . . . .XX. . . .XXooOO",
"O+OoXXoXX .   . ..X. ... ..XOoOO",
"+OOooXXXX..     . X  .X. ..XOoOO",
"+OOOXXX.XX.  .    .  .X.  .XOoOO",
"+OOOXXX.XX        .   X.  XXoO+O",
"++OOX.X X.   .     .  ..  .ooO+O",
"++OOX.. X.   .        ... .ooO++",
"O+OOX.  .. . .        . .X.XoO++",
"O+OOX.  .  . ..  .    . .X.XOO++",
"OOOoX.. .  ....  .      ..XXOO++",
"OOoo... .   .X.  .  .   ..XoOo+O",
"OOXo .. . . .X.     ..  .XXooo+O",
"OOXX . .. . .X.      . ..XXoXoO+",
"OoXo.. ...  .X       . ...XXXoOO",
"OoXo..  .   X.  .   .. ...X.XoOO",
"Oo.X..  . . X.  . . .. .X.X.XooO",
"oX.X.X. . ..X.  ..  .. .X...XXoO",
"ooXX... .. XX..  .  X...X ..oXoO",
"oOXX.X  .X.XXX.  . .X.X.. .XoXoO"
};
