/* XPM */
static char *result[] = {
/* columns rows colors chars-per-pixel */
"32 32 5 1 ",
"  c #271620",
". c #301D29",
"X c #3B232D",
"o c #462C39",
"O c #543543",
/* pixels */
"   ...XXXXXX......   .XX...XXXX.",
"....  .........XooX......XX.....",
"XX...  .XX...XXXXX........XXX...",
".XX......XX....XXooXXX..   ..   ",
".    . .....XXooOOOooXXoX.    ..",
"   ...XXX......XXooooooX...     ",
".XXXXXXX.    .....XX..XXXX....  ",
"..XXX..    ...  .....XXX....   .",
"........XooooX.  .XX...     ....",
"XXX..XXooooXXXX..        .....XX",
"X..XXXoXXXXXX... ..    .   XoooX",
"OooooXX.....XXX..    ......XXoOO",
"oooX.X....XXXX......XXooXX...XXo",
"XXXX....  ..  ....XXXooXX..  .XX",
".....    ..  .XXX.  ...   ..   .",
"  .........XXXXXooX.    ........",
"..XoooOOooXXoOOooXX.....XooX....",
" .XXXooOOOOoooooX..   XXX...    ",
"  .....XXoooXX..     ....    .. ",
".. .     ...   ..   .XX.   .....",
"X......     ..    ..XX.......XXX",
"ooXX.    ..  .........XXXXX...Xo",
"XooXX......XX.  ....XXXoOOOoXXXX",
"...XooXX..XX.  ..XXoooOOOoooooX.",
"X..XXooooOooXXX...XXXoooooXXXXoX",
".  ....XooOOOOooX...XXXX......XX",
"  ..  ...XXXoooooX.   .XX..  .  ",
"     .XXXXX...XX.   .....   ... ",
".  ..XXooX...........X..XXXXXX..",
"XXXX..X...   ...XXXX...XXX..Xooo",
"OOOoooXX....     .oooOOOooXXXXoo",
"XXXoooooXX....  ...XoooooooooXXX"
};
