/* XPM */
static char *a36e6498519a476182c1e7b8a1e344db6KcSESBUU0mAc4Pt[] = {
/* columns rows colors chars-per-pixel */
"32 32 7 1 ",
"  c #262B44",
". c #3A4466",
"X c #5A6988",
"o c #3E2731",
"O c #8B9BB4",
"+ c #733E39",
"@ c white",
/* pixels */
"  ..XX.XXXXXXXXXX .X..XXXXXXXXXX",
"   XXoXoXX.  .  O  .oo  . ooo   ",
"X X oX X O      O  o     . oX   ",
"   Xo .  +     .O    XX oo X   X",
"   X .  O .   . X   XX o XX    X",
"    X  +    ..  X    o OX     .O",
"o  . X   X    OXO     O      .O ",
"o         XXO   X  .o     X  O o",
"  .        X    O   .   . ...Xoo",
".     .    X    O    ..   . +X .",
"     ...  . X  .X     .    +X.. ",
".    . X       .O      .X .X.. o",
"o   ..O     ...XX     .X .++.  .",
"   ..O      ....O   O..o+... .. ",
"    .   .oo.o...O     oo..o . . ",
"                                ",
"...XXXXXXXXXXXXXO X..XXXXXXXXXXX",
"     .  o. XXX .O     .o ooX. . ",
"  ..oo.  .  o XOX         o...  ",
"     .. X     ..X    . oo X.   .",
"  . .  X     .  O   .  . o  . . ",
"  .X..X..   .X  X         .. .  ",
"    X.O..X .X   O        ...O . ",
"  . o...X  O   XX  ..  X  .. . o",
"  .o .XX.  X  X.O       ..O.   o",
"  .oo.X..OO  .. O             o ",
". o.o.OXO..XX . O      ..   X  o",
"  o  OXX..X. .  O     ....   X .",
"    OX.X.X... . O     O .  + oX ",
"X  OX.X..X.. . .X       ..ooo. X",
"   XXX.X..X.....X               ",
"              o                 "
};
