/* XPM */
static char *result[] = {
/* columns rows colors chars-per-pixel */
"32 32 6 1 ",
"  c #4E4B54",
". c #3C3947",
"X c #312C36",
"o c #27221C",
"O c #20131C",
"+ c #160F10",
/* pixels */
"XXXooO+OOoooXXoO+++OoX.XoXoO+OoX",
"XXXXOOOOooXXXoOO+OoXX.XXXXXoOOOo",
"oXXXoOoXoXXoO++OOoXXXXX.XXXXO+Oo",
"OOooooXXXooOOOOOoXXXXX.X..XXo+++",
"++OoooooooOOOOOoXXXX.X.....XoO++",
"+OOoOooooOO+O+OXoX..X... .XoOoO+",
"O+oooXXXooO++OoXXXX...  .oOOoo++",
"+OoXXXXXXXoO+OX.XX...  .oOOOOoO+",
"OoXoXX.XX..oOooX.. .  .oOOO+Oo++",
"oX.XX.X.....ooOo.   ..oO+O+OoO++",
"......... .XoOoOOOoXX.O+O++oo+++",
"X......  .XXXOOoOOOOo.O++++XOO+o",
"X.X.    .XoOooOOoOOOoX+++OoXO+OX",
"XXXX.XXo++O+OoOooooOoXOOoXXo++oX",
"XXXXXXO+++++oOoXXoOooooX..oO+OXo",
"XXooXo+++++OoXXXXXoO+OOoooOOOOXX",
"XXXoXOO+O+OoXoX..XO++++OOOoOoOoX",
"oXXXoO+++OooX...oOO+++O+OoooOOOo",
"ooooO++OOoO+OooXOO++OOOooXXXoO+O",
"OOooOOOooOO++OOooO+OoX.XXXXoXoO+",
"++OoXXoooO++O+OOoOX...XX..XXXX++",
"+OoXXXXXooOO++++Oo.......X..XoO+",
"OooXX..X.XooO++OOo. . .....Xooo+",
"oXXX..X...XooOOOOoX.    .XoOOooo",
"XXXX......XXOooOOOooXX.XoOOOoOoo",
"XX..X.. ..XOOOoOOooOOoXXOOOOOOoX",
".XX... ..XO++OOoOooOOOXoOO+OOOoX",
"X.. .  .X+++++OoooOoOOXOO++OOOXX",
"      .X+++++OoOoO+oOOoOoOO+Oo..",
"..  .XO+O++OO+Ooo+O+oOooOoOOooX.",
"XX.oOO++++++OOooOO+++oOoooooOoXX",
"XXXoOOO+++OOooooO+++OoooooOOOooX"
};
