/* XPM */
static char *result[] = {
/* columns rows colors chars-per-pixel */
"32 32 6 1 ",
"  c gray32",
". c gray38",
"X c #6E6D6D",
"o c #888788",
"O c gray65",
"+ c gray71",
/* pixels */
"XX.XoOOo.XooX.XoOOoX..XoOO++OOoX",
"X.XoO++Oo .XX.oO++OOoX.XoOoOXooo",
"..oO++OOoo . o+++O+OOo XXoOooXXo",
" XO+O+OoOoX o+O+OOOooo. . ooXXoX",
".XOOOoOOoX XOOoOoOoOoX.  ..XooX.",
".XoOoOoo.X.XOoooXoOooX .. ..X . ",
" .XoOoXXX. XooXooXooX..oOOoX .  ",
"....oXX..XX.oX.XXoXo.XoO+OOoX.X ",
" ..X..Xo+OoX oXXooX.oO++OOoOoX.X",
". . XoO+O+Oo..XoX. oO++O+OOooX X",
"+oX.oO++OooOX. ...oOooO+oOooX.Xo",
"O+oXoo+OooOooX.   .ooOoOOooX.XoO",
"Oooo.oo+OoooXXX. . .XoOOoX.X..O+",
"ooOo.XoXOOooXo.X.....Xoo.oXX .oO",
"OOoXX.XooXoXoXX.ooOOo..XXoo. oXo",
"ooX.XXXXooXXXX.oOOO++Oo.XXo .X.o",
"XXXXoOOoXX.X.XoO+O++oooo.X.. .X.",
".X.o+++OoXo. .oOooOooXoX..X.X  X",
"X.o+O+OOo.XoX.XooOooooXX XXoXoX.",
"X.+O+OOoOooX. ..ooXo.XX. XoXoOOo",
"oXoOoOoXoXooX. ..XoXX.. .ooOO++O",
"ooXoOoooXXX. .XX ...XX..XoO++O++",
"Xo.XooX.X. .XoOOoo. .. XoO+O++Oo",
"oXX.XX...X.Xo++O+Oo..  .ooO+Oooo",
"o.XoOoOoX.XXOO++oOOoX..X.ooXoXXo",
"XXoOO++OoX.oO+OOOooOoXX. XooXXoo",
".X+O+OOoXo.XoOOoXXooXX... ..ooXX",
" oO+oOoXooX.XoXXXooXX. .X.X..XX.",
"oO+OOoXXXX.X.XoXoXXX. .XoooXX.. ",
"XooOoXoXoXX.  .XXX..X.Xo+OOooX  ",
".XooX.XoX.oXX...X..X.XoOO+OOoo. ",
".XXXXX..XoXooX . .  X.oO++O++Xo."
};
