/* XPM */
static char *result[] = {
/* columns rows colors chars-per-pixel */
"32 32 6 1 ",
"  c #F2EFED",
". c #EEEAE6",
"X c #EEE6DE",
"o c #EAE2DA",
"O c #E2DED0",
"+ c #DDD9CB",
/* pixels */
"+XXXX.....+XX.......X+XXXXXoooo+",
"+X........+......XXXX+Xoooooooo+",
"+.........O..XXXXXXXo+ooooooXX.+",
"+.......XXOXXXXXXoooo+ooooX....O",
"+..XXXXXXXOXXXXoooooo+ooo......O",
"+XXXXXXXXXOOOOOO++++++XX......XO",
"+XXXXXXXXoooooo++ooXXX......XXXO",
"+XXXXXooooooooo++XXX......XXXXXO",
"+XXoooooooooooX+OX.....XXXXXXXX+",
"+oooooo+++OOOO++OOOOOO+++XXXXXo+",
"+oooooo+      ...XXXXXXX+XXoooo+",
"+oooXXXO ...XoooXXXXXXXX+oooooo+",
"+XXXXXoO..XoOOOO++++XXoo+oooooX+",
"+OOOO+++.XooO  ...X+oooo++++++++",
"     ....XXXO...XXX+ooooXXXX.   ",
".......XXXXXO.XXXoo+ooXXXXX.....",
".....XXXXXXX+.XXoooOXXXXX.......",
"..XXXXXXXXXX+XooooXOXXXX........",
"+OOOOOOOXXXo+oooXXXOXX..OOOO+++O",
"+    ..+Xooo++++OOOO....O    ..O",
"+ ....X+oooXXXX.........O ....XO",
"+....XX+oXXX............O....Xo+",
"+..XXXX++++OOOO+OOOOO++++..XXoo+",
"+XXXXX...     .+O     ...XXoooo+",
"OXX............++ ......XooooXX+",
"O...........XXX++...XXXXoooXX..+",
"O.......XXOOO+++++++++XXXX.....+",
"O....XXXXXO       ..X+X........+",
"OXXXXXXXooO .....XXXX+.......XX+",
"+XXXXXooooO ...XXXXX.+......XXX+",
"+oXXXoooXXO..XXXXX...O...XXXXXX+",
"+oooXXXXX.OXXXXX.....OXXXXXXXXo+"
};
