/* XPM */
static char *_d6f037c53a44d6e90a21126bb2b1a9fiuhUZwlvLKGHEPa2[] = {
/* columns rows colors chars-per-pixel */
"32 32 83 1 ",
"  c #5B3226",
". c #69372A",
"X c #6E392A",
"o c #723D2F",
"O c #783F2F",
"+ c #6C3F32",
"@ c #753F31",
"# c #6F4033",
"$ c #764234",
"% c #7B4434",
"& c #77473A",
"* c #7C4638",
"= c #7D493A",
"- c #747474",
"; c #7E7E7E",
": c #824635",
"> c #884432",
", c #854837",
"< c #8B4937",
"1 c #854A3A",
"2 c #8C4D3B",
"3 c #914F3C",
"4 c #87503F",
"5 c #8D503F",
"6 c #94513D",
"7 c #9A533E",
"8 c #854F40",
"9 c #884F40",
"0 c #855042",
"q c #8C5242",
"w c #945442",
"e c #9B5642",
"r c #965847",
"t c #9D5946",
"y c #935949",
"u c #9D5B49",
"i c #A15641",
"p c #A25A46",
"a c #A85C47",
"s c #A45E4A",
"d c #A95F4A",
"f c #A5604C",
"g c #AB624D",
"h c #B0654F",
"j c #A56250",
"k c #AC6551",
"l c #AD6551",
"z c #AC6753",
"x c #AD6854",
"c c #B06550",
"v c #B36852",
"b c #B16B57",
"n c #B36B56",
"m c #B56954",
"M c #B76C55",
"N c #B86C56",
"B c #B46C58",
"V c #BA6E58",
"C c #BB705B",
"Z c #B9705C",
"A c #BC715C",
"S c #C0735F",
"D c #C27761",
"F c #808080",
"G c #848484",
"H c gray54",
"J c #8C8C8C",
"K c gray56",
"L c #909090",
"P c #959595",
"I c gray60",
"U c gray62",
"Y c #9F9F9F",
"T c gray64",
"R c gray65",
"E c #A7A7A7",
"W c gray66",
"Q c gray67",
"! c #ACACAC",
"~ c #B2B2B2",
"^ c #B6B6B6",
"/ c #BABABA",
"( c gray77",
/* pixels */
"mAmcggs3IcVmCACVVmVVgpes!hVmCmgg",
"psepep<:UMAmmgcggggddlls!chglcgg",
"p6essw2=^SClieipgggpsssyWmgesxBx",
"xgfuu2q%Pce66pupfxlf62:,Pvssusfb",
"6663wrq$;d763w6<><23<,:$;ggfe32<",
":%,wqq$+Fdfr5,25w2wryq%XI73:,,w:",
"=*%%=$#+-pw,1,qqyyqq,*$*I2$%$==0",
"T!TUHK;;-;KUWIRUTUWTPLPKGLGUW(^R",
"!VVCgccbMVAVVvd7Laapggggdgcvgfus",
"Ugcggbsppgpepgsq~mVdggmcgggZbgww",
"!bBfxgllgsuuerr8Rggfsgslbbgflrw2",
"Tge6uesssppblr,%Isee6erssuu6<,:%",
"Rsw6wuurruw66w1&Wgfruuw<<<w222,,",
"Reuq222,,ww2:%%+H622q<,,2w52211=",
"U,$oXo%=@$%1%.  G251%%9qqq,1$$o$",
"WUW!~WW!RTPIKF-;;PKUW^^WUUUIT~~W",
"VmVVgpesPhVmCmggmAmcggs3IcVmCACV",
"gggddllsIhhglcggpsepep<:UMAmmgcg",
"gggpsssrWmgesxBxp6essw2=WSClieip",
"fxlf62:,Rvssusfbxgfuu2q%~ce66pup",
"><23<,:$Wggfe32<6663wrq$Id763w6<",
"w2wryq%XP73:,,w::%,wqq$+Rdfr5,25",
"yyqq,*$*I2$%$==0=*%%=$#+Rpw,1,qq",
"///!~^/^^~~TL;FKIKHKIU~~W~(~I;PT",
"RgpdghcgmMmggggePcNmdgcmcmmvgmmg",
"UgglvgsppsgbbblrUVAMlsliae77psfw",
"^Mmlglfspspfse,,!DBllsetgspeuw2<",
"!ldttssppsu636<2WDMssupslbbluwqq",
"Up7pue6uuslsjruqFgeeuuuu6eeurwwq",
"P3w22<6wwwrw2,%%-i6wruruwr22<q,,",
"W5,OO:q::%:2,4%$Igu,::,,,,,:,4,%",
"RI~!/PTITGLW^/UI;GF;GLLHFTW^~/RI"
};
