/* XPM */
static char *f86a673f33704e12bc8206132668c7b6GFg1BNj2dgzpucZO[] = {
/* columns rows colors chars-per-pixel */
"32 32 4 1 ",
"  c #181425",
". c #2E1F2C",
"X c #4D2D33",
"o c white",
/* pixels */
"                                ",
"  ..  .           .X  .         ",
"  ..  .           ..  .         ",
"          ..              .X    ",
" ..     . .. .   ..     . .. .  ",
"                                ",
"          .               .     ",
"                                ",
"      ..              X.        ",
".   . ..        .   . ..        ",
"    .               .           ",
"            ..              X.  ",
"            ..              ..  ",
"    ..              ..          ",
" .         .     .         .    ",
"                                ",
"                                ",
"        .                       ",
"                                ",
" ..                             ",
" ..                .            ",
"           ..                   ",
"           ..                   ",
"                          .     ",
"  .                             ",
"                                ",
"     ..                         ",
"     ..                         ",
"             .        .         ",
"                                ",
"                .               ",
"                                "
};
