/* XPM */
static char *result[] = {
/* columns rows colors chars-per-pixel */
"32 32 6 1 ",
"  c #4E4B54",
". c #3C3947",
"X c #312C36",
"o c #27221C",
"O c #23161F",
"+ c #160F10",
/* pixels */
"X.   . . .  .  .   ..  .  ...Xo+",
"....  ...  ...  . .X..  ...X.Xo+",
".X...X.X.. ..X....XooXoXX.XXX.o+",
"X.X.XX XX.....X.XoXXooXXXXXX..X+",
"XXX.X  .X.X.XoXXooooX.X.XXX..XO+",
".XXX. ...XXXooXooXoX...XX..X.Xo+",
"..XXX.X.XXX.XX..XoX..XXXXX..XXoO",
"X..XXXXXXXXXX....X.X..X...XXoXO+",
"X.XoXooXoXoX.Xo.oXX..X..X.oXXoO+",
"oX.XooXXXooX.ooXoo.XXX.XX.ooXoo+",
"oXoooXXXXXooXoXXXooXoX.X..XoXoO+",
"OooOooXoXoOooXXXooOoXoX..XXXooOO",
"oOOoXXXXoooOOoXooooOooooXoXooOOO",
"ooOOoXooXoOOooOOooOOOoOOoooOooOO",
"oOoOOoOooOOOOooOOOO+OOOooOOooOO+",
"OO+OO+++OOOOOOOOOO++++OOOOOOOO++",
"     .   ...XXoOOooXX.    .  . .",
". ..  . .....oXOoX.X... .  .... ",
"X.XX. ..X.X..ooOoXX.XX..... ....",
"XXo....XX.XX.XoOXX...XX......XX.",
"ooXo.X.X...X.XoOoX.X .  ....XX.X",
"XooXXXX. ...XXoOoXX..  ..X....XX",
"X..XXXXX.X.XXXo+oX..X.. .XX.X...",
"..X.XXXXXXXXXoOOoX. .XX.X..X..X.",
".XXXXoXXooXXXooOO.  ..XXooXX.XXX",
"XoXXXXoooXXooXO+O  .X..XXXooX.XX",
"XXoXXoXoooXXooO+oX...XooXooXXooX",
"XooXoooOooXoXoO+o..XXXXooOooooXX",
"oOOoOOoOOXXoooO+ooXXooXXooOOoXoX",
"OoOOOoooOooooOOOoXXooXooOOOooooo",
"OOOOoOoOOOoOOOOOOooooOOOOOoOOooo",
"+OO+OOO++OO+++OOO++OOO++OOOO++O+"
};
